<?xml version="1.0" encoding="UTF-8" standalone="no"?>
<!-- Created with Inkscape (http://www.inkscape.org/) -->

<svg
   width="184.14999mm"
   height="184.14999mm"
   viewBox="0 0 184.14999 184.14999"
   version="1.1"
   id="svg5"
   xml:space="preserve"
   inkscape:version="1.2.2 (b0a8486541, 2022-12-01)"
   sodipodi:docname="map-Bardville.svg"
   xmlns:inkscape="http://www.inkscape.org/namespaces/inkscape"
   xmlns:sodipodi="http://sodipodi.sourceforge.net/DTD/sodipodi-0.dtd"
   xmlns="http://www.w3.org/2000/svg"
   xmlns:svg="http://www.w3.org/2000/svg"><sodipodi:namedview
     id="namedview7"
     pagecolor="#ffffff"
     bordercolor="#666666"
     borderopacity="1.0"
     inkscape:showpageshadow="2"
     inkscape:pageopacity="0.0"
     inkscape:pagecheckerboard="0"
     inkscape:deskcolor="#d1d1d1"
     inkscape:document-units="mm"
     showgrid="false"
     inkscape:zoom="0.55244701"
     inkscape:cx="290.5256"
     inkscape:cy="214.50021"
     inkscape:window-width="1920"
     inkscape:window-height="1026"
     inkscape:window-x="1280"
     inkscape:window-y="0"
     inkscape:window-maximized="1"
     inkscape:current-layer="layer1" /><defs
     id="defs2"><rect
       x="186.47487"
       y="205.12724"
       width="87.975512"
       height="30.255554"
       id="rect4453" /><rect
       x="170.45804"
       y="5.3406465"
       width="169.28252"
       height="26.574742"
       id="rect3919" /><rect
       x="40.383149"
       y="5.4638467"
       width="88.11458"
       height="29.896055"
       id="rect3137" /><rect
       x="170.45804"
       y="5.3406465"
       width="21.309394"
       height="25.201666"
       id="rect3927" /><rect
       x="170.45804"
       y="5.3406465"
       width="19.673622"
       height="27.87545"
       id="rect3933" /><rect
       x="170.45804"
       y="5.3406465"
       width="189.96658"
       height="111.61592"
       id="rect3939" /><rect
       x="186.47487"
       y="205.12724"
       width="87.975512"
       height="30.255554"
       id="rect4461" /><rect
       x="170.45804"
       y="5.3406465"
       width="24.481155"
       height="37.469507"
       id="rect4467" /><rect
       x="170.45804"
       y="5.3406465"
       width="169.28252"
       height="26.574742"
       id="rect5927" /><rect
       x="186.47487"
       y="205.12724"
       width="87.975512"
       height="30.255554"
       id="rect6428" /><rect
       x="186.47487"
       y="205.12724"
       width="87.975512"
       height="30.255554"
       id="rect6434" /></defs><g
     inkscape:label="Layer 1"
     inkscape:groupmode="layer"
     id="layer1"><rect
       style="fill:#596974;fill-opacity:1;stroke:none;stroke-width:1;stroke-linejoin:round;stroke-dasharray:none;stroke-opacity:1"
       id="rect7799"
       width="184.14999"
       height="184.14999"
       x="0"
       y="0" /><rect
       style="fill:#bcb3ae;fill-opacity:1;stroke:#696363;stroke-width:0.499999;stroke-linejoin:round;stroke-dasharray:none;stroke-opacity:1"
       id="rect1595"
       width="10.627238"
       height="3.3903637"
       x="50.855587"
       y="116.37932"
       transform="rotate(-18.70752)" /><rect
       style="fill:#bcb3ae;fill-opacity:1;stroke:#696363;stroke-width:0.499999;stroke-linejoin:round;stroke-dasharray:none;stroke-opacity:1"
       id="rect1597"
       width="10.627238"
       height="3.3903637"
       x="2.5191722"
       y="130.36772"
       transform="rotate(-18.70752)" /><path
       id="path1603"
       style="fill:#84bc8d;fill-opacity:1;stroke:#8c8c8c;stroke-width:1;stroke-linecap:butt;stroke-linejoin:miter;stroke-dasharray:none;stroke-opacity:1"
       d="M 0.25011393,0.25011393 V 135.39949 c 1.13818577,0.004 1.05139847,0.12907 2.05568847,-0.33125 0.536783,-0.24604 1.3538457,-0.98486 1.6815511,-1.25522 0.9854574,-0.81304 1.9543985,-1.62194 3.0334066,-2.31252 1.5495688,-0.99176 3.4357099,-1.1381 5.0146809,-2.08101 0.328814,-0.19635 0.737789,-0.60805 0.991154,-0.82579 0.508023,-0.4366 1.029284,-0.8257 1.591634,-1.18959 1.961148,-1.26904 4.043487,-2.28752 6.095752,-3.40238 1.678238,-0.91167 3.360709,-1.95216 5.195549,-2.51044 1.353758,-0.4119 2.768145,-0.22849 4.143933,-0.49557 0.329119,-0.0639 0.759399,-0.25349 1.051098,-0.33022 0.928764,-0.24432 1.917775,-0.37552 2.822567,-0.69401 0.798342,-0.28102 1.489727,-0.78597 2.222603,-1.18908 0.599268,-0.32962 1.231934,-0.59527 1.831413,-0.925 0.434829,-0.23917 0.799996,-0.57394 1.201477,-0.85887 1.232256,-0.87453 2.446128,-1.78315 3.663343,-2.6758 0.343164,-0.25166 0.691883,-0.57319 1.051098,-0.79272 2.154503,-1.31666 4.283526,-2.70549 6.306592,-4.22816 0.518183,-0.39001 1.0697,-0.7648 1.531173,-1.22267 1.402149,-1.39121 2.730024,-2.97997 4.354773,-4.12895 0.79453,-0.56187 1.661076,-1.00194 2.462382,-1.55287 0.44887,-0.30862 0.858141,-0.70452 1.321366,-0.99116 0.295095,-0.1826 1.495574,1.89654 1.773948,1.68601 1.532465,-1.15898 3.617943,-2.79248 5.167243,-3.92865 1.065677,-0.78151 2.820845,0.08854 3.929816,-0.643872 0.538487,-0.35564 0.569502,-0.127067 0.840776,-0.231511 0.582059,-0.224107 0.448956,-0.296997 0.930692,-0.396358 0.894005,-0.184396 0.400158,0.0031 1.351339,-0.264067 0.729389,-0.204859 1.420172,-0.525964 2.162142,-0.694014 2.018866,-0.457256 2.052008,-4.235749 4.05418,-4.744026 0.755792,-0.191868 1.485794,-0.679842 2.192114,-0.990638 0.907242,-0.399202 1.859503,-0.709495 2.762622,-1.123445 0.72446,-0.33206 1.443716,-0.705791 2.222087,-0.891935 1.779093,-0.42546 3.625244,-0.455709 5.405355,-0.858863 1.218359,-0.27593 2.40371,-0.681422 3.603914,-1.02371 0.524014,-0.149445 1.071894,-0.187933 1.591117,-0.330729 1.105743,-0.304099 2.368357,-0.836926 3.243217,-1.585433 0.99661,-0.852677 2.52432,-2.320959 3.21324,-3.435449 0.18517,-0.299548 0.30486,-0.639177 0.51056,-0.925008 1.07228,-1.489947 2.32753,-3.003689 2.88303,-4.789889 0.42315,-1.360655 0.35988,-2.355604 0.30024,-3.733105 -0.0476,-1.098562 0.0101,-2.207594 0.0599,-3.303158 0.0261,-0.57387 0.21837,-1.138748 0.2403,-1.717724 0.16019,-4.228252 0.54379,-8.489266 0.24029,-12.718087 -0.1072,-1.493731 -0.58837,-2.929224 -0.87074,-4.39353 -0.32962,-1.709262 -0.53709,-3.462982 -0.78084,-5.186764 -0.16055,-1.135418 -0.1796,-2.294175 -0.30024,-3.435449 -0.0816,-0.771871 -0.0728,-0.309828 -0.21032,-1.387512 -0.12218,-0.957592 -0.0837,-1.916418 -0.18035,-2.873727 -0.13578,-1.344301 -0.35205,-2.664567 -0.57051,-3.997172 -0.21272,-1.297671 -0.44755,-2.635862 -0.93069,-3.86488 -0.50247,-1.278188 -1.19267,-2.5396 -2.19211,-3.501595 -0.5676,-0.546342 -0.99052,-0.854938 -1.44178,-1.486731 -0.90774,-1.270861 -1.480091,-2.642204 -2.162138,-4.030245 C 98.561349,19.891759 98.186777,19.187325 97.86121,18.457788 97.39841,17.420735 96.934335,16.330984 96.569816,15.253333 96.365266,14.64861 96.226189,14.00205 95.908875,13.436906 95.548716,12.795461 95.347129,12.645949 94.94821,12.016321 94.579021,11.433618 94.304567,10.780727 93.927083,10.199377 92.722018,8.3435497 91.344791,6.5898939 90.173307,4.7154744 89.924152,4.3168168 89.848579,3.8426243 89.632772,3.427181 89.153959,2.5054275 88.640221,1.3023674 88.022534,0.25011393 Z"
       sodipodi:nodetypes="ccssssssssssssssscssssssssssssssssssssssscscssssssssssssssscsscc" /><path
       id="path1673"
       style="fill:#94999d;fill-opacity:1;stroke:#7b7386;stroke-width:1;stroke-linecap:butt;stroke-linejoin:miter;stroke-dasharray:none;stroke-opacity:1"
       d="m 44.14976,0.25011393 c 0.238688,0.30120353 0.954582,1.20321267 2.070158,2.57141927 1.322941,1.6225325 0.299611,3.5604833 -0.705383,4.826062 C 44.509543,8.9131749 30.704042,20.231451 27.741976,23.88123 25.255338,21.966527 20.777722,21.622288 17.415474,23.903451 16.075641,22.810859 6.7308553,12.405444 6.7308553,12.405444 l -1.9993612,3.264401 c 0,0 8.6414339,9.854172 10.1249639,10.780737 -1.586657,1.812547 -2.627034,7.143004 -0.03979,10.418485 C 9.761065,41.942299 5.2168022,47.407304 0.25011393,52.921834 v 6.637838 C 5.2022252,53.93096 15.409585,42.260125 17.399972,39.435319 c 2.132901,1.947726 7.84092,2.175148 10.312032,0.0124 l 4.718286,4.772508 c 0,0 -0.666349,0.671843 -1.648478,1.669149 -1.087796,1.104606 -0.385745,3.140634 0.825049,4.297675 1.210794,1.157043 7.064245,7.13832 8.608772,8.700309 1.544526,1.561987 4.060279,1.624104 5.25075,0.467685 1.190472,-1.156423 5.338679,-5.239318 5.338679,-5.239318 l 26.548356,28.087522 c 0,0 -7.877981,2.826027 -10.489799,4.134115 -2.611816,1.308087 -1.767038,2.551231 -0.05522,7.177371 L 99.419073,82.843633 c 0,0 -0.917931,-2.814862 -1.639897,-4.590119 -0.721965,-1.775258 -2.631302,-1.960103 -4.584864,-1.352782 -1.953561,0.607322 -13.568681,4.041097 -13.568681,4.041097 L 53.128783,51.811736 c 0,0 1.66463,-1.800185 2.446476,-2.762211 1.884066,-2.31826 -1.377882,-4.433513 -2.399693,-5.505413 -1.021813,-1.071901 -6.898853,-7.018569 -8.336823,-8.254793 -1.260178,-1.083376 -2.779258,-0.624918 -3.794106,0.34169 -1.012856,0.96471 -6.076504,6.197501 -6.076504,6.197501 -1.459763,-1.520237 -3.822042,-4.043052 -4.603061,-4.950141 2.594271,-3.17432 1.509953,-8.647561 0.0036,-10.427787 0,0 13.294888,-10.842245 14.292668,-11.935706 1.399419,-1.533615 2.053663,-1.653808 2.891813,-0.833541 0.840984,0.823041 6.91183,5.698936 8.440311,6.922059 0.541931,0.433663 0.706763,1.031295 0.150379,1.64486 -0.62643,0.69081 -2.853056,3.083016 -2.853056,3.083016 l 2.177645,2.301669 3.348116,-3.247864 0.889351,-0.502812 L 95.7807,59.957581 97.910802,57.827478 64.122167,24.038843 c 0,0 -3.302241,-3.051019 -4.056083,-3.734139 -0.753841,-0.68312 -8.717291,-6.840495 -10.789522,-8.831503 -0.694401,-0.667183 -0.629402,-1.253512 -0.02119,-1.7352941 5.016852,-3.74648 2.228206,-7.8201269 0.797368,-9.48779297 z"
       sodipodi:nodetypes="csscccccccccccssssccsccssccsssscccsssscccccccssccc" /><path
       id="path1605"
       style="fill:#84bc8d;stroke:#8b776b;stroke-width:1;stroke-linecap:butt;stroke-linejoin:miter;stroke-opacity:1;fill-opacity:1;stroke-dasharray:none"
       d="M 149.13818 0.25011393 C 149.53897 2.1672415 152.41771 1.7128348 153.80767 3.427181 C 154.67052 4.4913938 155.26449 5.7327028 156.02975 6.863147 C 156.97967 8.2663823 158.4347 9.4161604 159.63315 10.595736 C 159.89071 10.849232 160.21573 11.033101 160.47444 11.289233 C 161.41024 12.215702 162.20906 13.16965 163.35695 13.866337 C 164.33389 14.459264 165.3743 14.899722 166.54022 14.856974 C 167.35409 14.827134 168.13666 14.436655 168.94266 14.460616 C 169.56749 14.479196 169.9999 14.899753 170.59424 15.022339 C 171.12485 15.131782 171.66455 15.160178 172.18587 15.319478 C 172.75572 15.493608 172.96203 16.008487 173.32689 16.409851 C 173.83882 16.972985 175.44651 18.124715 176.14997 18.29294 C 176.69086 18.42229 177.40073 18.367021 177.95141 18.424715 C 178.7698 18.510455 179.60046 18.588166 180.41379 18.722371 C 181.05927 18.828878 181.65972 19.151277 182.30618 19.250505 C 183.00141 19.357217 183.7002 19.442109 184.40011 19.521289 L 184.40011 0.25011393 L 149.13818 0.25011393 z " /><path
       style="fill:#9f9f9f;stroke:#6e6e6e;stroke-width:1;stroke-linecap:butt;stroke-linejoin:miter;stroke-opacity:1;stroke-dasharray:none;fill-opacity:1"
       d="m 115.67635,64.800598 c 0.30418,0.402016 -0.13432,-0.960752 0.21021,-1.123164 0.13977,-0.06589 0.35178,0.06213 0.51051,0.03303 0.11608,-0.02127 0.16706,-0.132729 0.27027,-0.165172 0.0921,-0.02896 0.15361,0.01942 0.24024,0.03303 0.39427,0.06195 0.39481,0.0819 0.5105,0.495519 0.0531,0.189836 0.2019,0.227693 0.24024,0.39641 0.1602,0.704974 -0.14658,1.751354 -0.99098,1.618668 -0.0869,-0.01365 -0.23124,0.07596 -0.3003,0 -0.2235,-0.245859 0.0163,-0.07531 -0.12012,-0.330346 -0.17527,-0.327755 -0.38038,-0.638651 -0.57057,-0.957977 z"
       id="path1613" /><path
       style="fill:#9f9f9f;stroke:#6e6e6e;stroke-width:1;stroke-linecap:butt;stroke-linejoin:miter;stroke-opacity:1;stroke-dasharray:none;fill-opacity:1"
       d="m 118.25892,52.974387 c -0.16426,-0.997103 -0.11181,-2.173395 -0.51051,-3.138241 -0.0858,-0.207634 -0.0944,0.03146 -0.18017,0 -0.16721,-0.06131 0.19086,-0.801386 0.24024,-0.891913 0.0304,-0.05567 0,-0.313357 0,-0.363379 0,-0.782378 -0.0653,-1.123161 0.84083,-1.123161 0.12735,0 0.27463,0.04453 0.39039,0.09911 0.13987,0.06595 0.075,0.174271 0.18018,0.264269 0.17773,0.152066 0.61765,0.23572 0.72072,0.462473 0.0583,0.128177 0.0192,0.294754 0.06,0.42944 0.0463,0.152625 0.16581,0.282914 0.21021,0.429456 0.0475,0.156678 -0.0754,0.416414 0,0.561567 0.12742,0.245288 0.26892,0.190773 0.33034,0.52855 0.13755,0.756563 0.002,1.670355 -0.12012,2.411487 -0.0221,0.133646 -0.20188,1.45351 -0.45045,1.45351 -0.0466,0 -0.6079,-0.800865 -0.72072,-0.92496 -0.22662,-0.249256 -0.65661,-0.157337 -0.99099,-0.198205 z"
       id="path1615" /><path
       style="fill:#9f9f9f;stroke:#6e6e6e;stroke-width:1;stroke-linecap:butt;stroke-linejoin:miter;stroke-opacity:1;stroke-dasharray:none;fill-opacity:1"
       d="m 113.18387,28.760401 c -0.0452,0.521385 1.15112,-0.22398 1.38137,0.198205 0.0158,0.029 -0.033,0.0991 0,0.0991 0.0858,0 0.0667,-0.953087 0.36036,-1.222261 0.44499,-0.407929 0.45503,-1.003424 0.51051,-1.552604 0.002,-0.01905 0.0559,-0.193227 0.03,-0.231236 -0.0815,-0.119526 -1.13834,-0.824325 -1.32131,-0.924959 -0.25135,-0.138244 -0.56436,0.222132 -0.87087,0.264275 -0.24045,0.03306 -0.99746,0.206753 -1.14113,0.396409 -0.10956,0.144625 -0.0601,0.429461 -0.0601,0.594613 0,1.0985 0.43169,1.48871 1.11111,2.378456 z"
       id="path1617" /><rect
       style="fill:#82bc8b;fill-opacity:1;stroke:#7c957c;stroke-width:0.5;stroke-linejoin:round;stroke-dasharray:none;stroke-opacity:1"
       id="rect1773"
       width="14.129327"
       height="14.129327"
       x="-10.151295"
       y="56.90839"
       transform="rotate(-45)" /><rect
       style="fill:#e1e1e1;fill-opacity:1;stroke:#7c7c7c;stroke-width:0.5;stroke-linejoin:round;stroke-dasharray:none;stroke-opacity:1"
       id="rect1775"
       width="8.3397903"
       height="8.3397903"
       x="-7.2565265"
       y="59.803158"
       transform="rotate(-45)" /><circle
       style="fill:#82bc8b;fill-opacity:1;stroke:#7d977d;stroke-width:0.5;stroke-linejoin:round;stroke-dasharray:none;stroke-opacity:1"
       id="path2613"
       cx="22.589012"
       cy="31.670406"
       r="5.6100488" /><rect
       style="fill:#bcb3ae;fill-opacity:1;stroke:#696363;stroke-width:0.333;stroke-linejoin:round;stroke-dasharray:none;stroke-opacity:1"
       id="rect3029"
       width="2.2541828"
       height="2.2541828"
       x="5.3593774"
       y="-35.452873"
       transform="rotate(135)" /><rect
       style="fill:#bcb3ae;fill-opacity:1;stroke:#696363;stroke-width:0.333;stroke-linejoin:round;stroke-dasharray:none;stroke-opacity:1"
       id="rect3031"
       width="2.2541828"
       height="2.2541828"
       x="5.3422208"
       y="-43.532978"
       transform="rotate(135)" /><rect
       style="fill:#bcb3ae;fill-opacity:1;stroke:#696363;stroke-width:0.333;stroke-linejoin:round;stroke-dasharray:none;stroke-opacity:1"
       id="rect3033"
       width="2.2541828"
       height="2.2541828"
       x="9.3910913"
       y="-39.566551"
       transform="rotate(135)" /><rect
       style="fill:#bcb3ae;fill-opacity:1;stroke:#696363;stroke-width:0.333;stroke-linejoin:round;stroke-dasharray:none;stroke-opacity:1"
       id="rect3035"
       width="2.2541828"
       height="2.2541828"
       x="1.2709525"
       y="-39.408081"
       transform="rotate(135)" /><rect
       style="fill:#bcb3ae;fill-opacity:1;stroke:#696363;stroke-width:0.333;stroke-linejoin:round;stroke-dasharray:none;stroke-opacity:1"
       id="rect3037"
       width="2.2541828"
       height="2.2541828"
       x="-23.612776"
       y="-28.790327"
       transform="scale(-1)" /><rect
       style="fill:#bcb3ae;fill-opacity:1;stroke:#696363;stroke-width:0.333;stroke-linejoin:round;stroke-dasharray:none;stroke-opacity:1"
       id="rect3039"
       width="2.2541828"
       height="2.2541828"
       x="-23.701742"
       y="-36.8465"
       transform="scale(-1)" /><rect
       style="fill:#bcb3ae;fill-opacity:1;stroke:#696363;stroke-width:0.333;stroke-linejoin:round;stroke-dasharray:none;stroke-opacity:1"
       id="rect3041"
       width="2.2541828"
       height="2.2541828"
       x="-19.684172"
       y="-32.795784"
       transform="scale(-1)" /><rect
       style="fill:#bcb3ae;fill-opacity:1;stroke:#696363;stroke-width:0.333;stroke-linejoin:round;stroke-dasharray:none;stroke-opacity:1"
       id="rect3043"
       width="2.2541828"
       height="2.2541828"
       x="-27.705437"
       y="-32.835598"
       transform="scale(-1)" /><path
       id="path3045"
       style="fill:#d8e1ac;fill-opacity:1;stroke:#cbc8b0;stroke-width:0.264583px;stroke-linecap:butt;stroke-linejoin:miter;stroke-opacity:1"
       d="m 56.829606,79.636483 c -0.08812,-0.0012 -0.239166,0.03616 -0.340548,0.01757 -0.09377,-0.0172 -0.740814,1.081901 -0.785481,1.167887 -0.246404,0.474353 -0.521267,1.091726 -0.488343,1.635042 0.02376,0.391927 0.144536,0.775471 0.170016,1.167888 0.06011,0.925675 -0.01253,1.905207 -0.21239,2.802929 -0.222165,0.997947 -0.398374,2.038331 -0.467155,3.059762 -0.07195,1.06858 -0.0039,2.06138 -0.382406,3.083533 -0.08594,0.232039 -0.266552,0.410065 -0.403593,0.607198 -0.06236,0.08971 -0.102348,0.19442 -0.169498,0.280603 -0.106138,0.136218 -0.404396,0.170623 -0.552422,0.256832 -0.174418,0.101577 -0.344177,0.21136 -0.509529,0.327112 -0.368493,0.218402 -0.671266,0.524546 -1.019059,0.770495 -0.76054,0.537829 -1.568095,0.992107 -2.335775,1.51877 -0.325705,0.223451 -0.629711,0.477398 -0.955497,0.700733 -1.857192,1.273161 -3.866523,2.245529 -5.839437,3.316593 -1.166203,0.63311 -2.268504,1.42285 -3.482475,1.96215 -2.608889,1.15901 -5.306533,2.05482 -7.793323,3.48041 -2.46688,1.41418 -4.596074,3.29297 -6.943245,4.88187 -3.858192,2.61178 -7.809158,5.15964 -11.933639,7.33496 -0.683982,0.36075 -1.393209,0.67211 -2.102197,0.98082 -0.7275408,0.3168 -1.5111898,0.48987 -2.2510254,0.77101 -0.2440487,0.0928 -0.4688696,0.23963 -0.7219197,0.30386 -1.0376943,0.26343 -2.0993088,0.36714 -3.1429606,0.63045 -0.9431678,0.23797 -1.8651756,0.618 -2.8029297,0.8878 -0.1814208,0.0522 -1.50190189,0.3513 -1.50190189,0.3513 l -0.005092,16.36882 c 0,0 5.11713219,-2.35114 5.78948939,-3.09077 0.5619374,-0.61816 1.1368491,-1.29301 1.8262451,-1.7756 0.506112,-0.35429 1.0698038,-0.62247 1.5709635,-0.98082 0.2300899,-0.16452 0.422501,-0.3765 0.6371704,-0.56069 0.4943141,-0.42413 0.9517851,-0.74737 1.5291061,-1.0511 0.589063,-0.30991 1.318962,-0.36684 1.953368,-0.56069 0.84058,-0.25685 1.660668,-0.5762 2.462899,-0.93431 0.814619,-0.36363 1.630861,-0.72896 2.442228,-1.0976 0.203625,-0.0925 1.018598,-0.59628 1.040247,-0.60772 0.344623,-0.18226 0.706677,-0.3299 1.06195,-0.49041 1.169138,-0.52822 2.424657,-0.79183 3.546037,-1.44797 0.04438,-0.026 0.589307,-0.44507 0.72192,-0.51418 0.385657,-0.20095 0.901741,-0.26201 1.316715,-0.39688 0.68753,-0.22346 1.349321,-0.52862 2.059823,-0.67748 0.306469,-0.0642 0.682132,-0.0429 0.976685,-0.14004 0.951658,-0.31405 1.906146,-0.66346 2.824117,-1.07487 0.534769,-0.23967 1.041233,-0.64605 1.613855,-0.79427 0.679026,-0.17575 1.411623,-0.39966 2.059822,-0.67696 0.269878,-0.11545 0.465228,-0.29819 0.700733,-0.46715 0.464248,-0.33305 0.949212,-0.62598 1.401464,-0.98134 0.148187,-0.11644 0.249993,-0.3147 0.424264,-0.39687 0.508663,-0.23982 1.063562,-0.46022 1.592668,-0.65423 0.46129,-0.16915 1.03989,-0.32172 1.465543,-0.58394 0.192781,-0.11875 0.346647,-0.37306 0.551905,-0.46715 0.5736,-0.26291 1.165284,-0.46244 1.698604,-0.81753 0.77421,-0.51548 1.417292,-1.18036 2.144572,-1.75183 0.285464,-0.22431 0.61998,-0.37873 0.913122,-0.58394 0.364794,-0.25536 0.674399,-0.78006 0.976685,-1.09812 0.353785,-0.37226 0.849565,-0.46674 1.189591,-0.84078 0.742315,-0.81659 1.450006,-1.61752 2.356963,-2.26601 0.669432,-0.47866 1.632404,-0.1964 2.335774,-0.63045 0.603464,-0.37239 0.28526,-0.25631 0.827857,-0.65423 0.158512,-0.11625 0.360511,-0.16464 0.509529,-0.30334 0.10174,-0.0947 0.185993,-0.24113 0.297657,-0.32711 0.180498,-0.13898 0.412016,-0.19344 0.594279,-0.32711 0.418496,-0.30691 0.785857,-0.68155 1.210262,-0.98082 0.823456,-0.58066 1.755127,-0.95984 2.569352,-1.54203 0.407627,-0.29146 0.780612,-0.60977 1.125512,-0.95756 0.09399,-0.0948 0.150091,-0.2769 0.233578,-0.35037 0.142245,-0.12517 0.466146,-0.0605 0.615983,-0.21032 0.396343,-0.39636 0.560936,-1.16431 0.785482,-1.6583 0.175914,-0.38698 0.540751,-0.69709 0.63717,-1.12137 0.09201,-0.40486 -1.394299,-3.868179 -1.394299,-4.333086 0,-0.541268 0.03272,-1.094898 0,-1.635042 -0.0154,-0.254193 -0.111427,-0.477168 -0.148828,-0.723987 -0.124751,-0.823231 -0.174364,-1.701573 -0.50953,-2.475818 -0.251186,-0.580244 -0.641429,-1.093466 -0.870747,-1.682067 -0.313497,-0.804662 -0.447809,-1.649134 -0.679029,-2.475818 -0.195974,-0.700672 -0.395345,-1.396242 -0.573608,-2.102198 -0.06015,-0.238206 -0.167787,-0.442269 -0.233578,-0.677478 -0.139358,-0.49822 -0.205741,-1.017922 -0.339514,-1.518253 -0.07052,-0.263753 -0.181259,-0.473803 -0.21239,-0.747758 -0.07075,-0.622608 -0.264236,-1.220005 -0.340031,-1.845366 -0.03345,-0.27601 -0.09465,-1.411888 -0.254765,-1.588016 -0.01125,-0.01238 -0.03367,-0.01719 -0.06305,-0.01757 z"
       sodipodi:nodetypes="ssssssssssscsssscssssccssccsssssssscsccsscsssssssscssssssssssssssscssssssssssssssss" /><path
       style="fill:#6aa273;fill-opacity:1;stroke:#6aa273;stroke-width:0.264583px;stroke-linecap:butt;stroke-linejoin:miter;stroke-opacity:1"
       d="m 8.0325208,72.529453 c -0.776111,1.076621 -1.7841074,1.888347 -2.4419491,3.059983 -0.7994637,1.423866 -1.04595,3.027434 -1.3589976,4.601652 -0.1622722,0.816014 -0.4518729,1.59517 -0.5308579,2.429293 -0.1074171,1.134377 0.059178,2.300324 0.084937,3.433725 0.019045,0.837951 -2.265e-4,1.686304 -0.042469,2.522731 -0.104594,2.071039 -0.3778337,4.452614 0.2335771,6.47034 0.1488596,0.491252 0.4144259,0.899885 0.6794973,1.331436 0.3064905,0.498983 0.5790356,1.024599 0.8918438,1.518312 0.2569511,0.405556 0.5715262,0.765312 0.8069037,1.191286 0.3514088,0.635961 0.7144282,1.266089 1.040483,1.915409 0.1772491,0.35299 0.2709635,0.74373 0.4459205,1.09786 0.70769,1.43241 -0.1399794,-0.37522 0.5308582,1.00442 0.2559936,0.52647 0.4339748,1.07343 0.6582669,1.61175 0.1091202,0.2619 0.2599182,0.50572 0.3609832,0.77083 0.196147,0.51453 0.4186465,1.01918 0.5945597,1.54167 0.1294544,0.3845 0.2063804,0.78422 0.3397494,1.16793 0.715395,2.05822 1.682073,3.95438 2.824168,5.79294 0.729808,1.17486 0.237569,1.95707 1.460214,2.67439 0.254025,0.14903 1.773871,-0.85539 2.018251,-0.85539 0.645363,0 2.030728,-0.9445 2.471182,-1.26751 1.176481,-0.86278 2.307194,-1.23653 3.422283,-2.18165 1.40096,-1.18741 2.536611,-1.66252 4.111873,-2.64447 0.457089,-0.28493 0.938501,-0.52853 1.380234,-0.84091 0.840922,-0.59468 1.663313,-1.19345 2.590591,-1.65846 1.174628,-0.58907 2.382311,-1.0957 3.588604,-1.61175 0.6681,-0.28581 1.288542,-0.67056 1.932324,-1.00441 1.143518,-0.59303 2.328608,-1.11616 3.461194,-1.72855 0.968034,-0.52342 1.842342,-1.16759 2.7817,-1.72854 0.476101,-0.28431 1.005943,-0.44928 1.486402,-0.72411 0.396746,-0.22695 0.759188,-0.545562 1.146654,-0.794199 0.425717,-0.273185 0.875321,-0.509884 1.295294,-0.794187 0.448855,-0.30385 0.863325,-0.661273 1.31653,-0.957704 1.001855,-0.655299 2.092089,-1.16218 3.015279,-1.938769 0.600845,-0.505433 1.084199,-1.179613 1.698744,-1.658464 0.609388,-0.474834 1.318165,-0.846433 1.826154,-1.448233 0.849612,-1.006505 1.503992,-2.329612 2.080967,-3.503793 0.294756,-0.59985 0.541199,-1.242742 0.700733,-1.892056 0.05879,-0.239287 0.0787,-0.487842 0.148637,-0.724115 0.106918,-0.361249 0.261559,-0.664376 0.318516,-1.027776 0.103632,-0.661202 0.139946,-1.321851 0.212342,-1.985481 0.156794,-1.437304 0.297283,-2.84738 0.297283,-4.297992 0,-0.637808 -0.01656,-1.277882 0,-1.915406 0.01,-0.384705 0.0905,-0.810316 0.02125,-1.191292 -0.120933,-0.66516 -0.499967,-1.226481 -0.78567,-1.821971 -0.460338,-0.959485 -0.979834,-1.930755 -1.592575,-2.803036 -0.423587,-0.603012 -1.030885,-1.054277 -1.528873,-1.588389 -0.313373,-0.336103 -0.625359,-0.731528 -0.870609,-1.121214 -0.394925,-0.627512 -0.669065,-1.429774 -1.380228,-1.751899 -1.598959,-0.724254 -3.394242,-0.130741 -5.053774,-0.02336 -0.864767,0.05596 -1.707417,-0.07447 -2.569359,-0.09343 -1.179425,-0.02595 -2.349891,0.09343 -3.524898,0.09343 -1.439608,0 -2.84498,-0.299443 -4.268102,-0.467173 -2.026343,-0.238828 -4.106341,-0.10075 -6.136722,-0.04671 -2.209839,0.05881 -4.416316,0.07967 -6.625116,0.186864 -0.600064,0.02912 -1.235672,-0.01109 -1.826154,0.09344 -1.519746,0.269024 -2.487478,0.711486 -3.907114,1.261364 -1.515467,0.586997 1.091009,-0.539699 -1.465171,0.560608 -0.91216,0.392641 -1.753499,0.937577 -2.654293,1.354798 -0.695382,0.322083 -1.294849,0.60709 -1.932324,0.957707 -0.329874,0.181433 -1.072462,0.38249 -1.422699,0.35038 -0.4249301,-0.03896 -1.0289781,-0.31968 -1.4439347,-0.116795 -0.4410675,0.215649 -0.699526,0.851596 -0.9130768,1.214647 z"
       id="path3051"
       sodipodi:nodetypes="sssssssssssssssssssssssssscsssssssssssssssscssssssssssssssssssss" /><rect
       style="fill:#bc918d;fill-opacity:1;stroke:#694343;stroke-width:0.5;stroke-linejoin:round;stroke-dasharray:none;stroke-opacity:1"
       id="rect3053"
       width="5.9587836"
       height="5.9587836"
       x="22.519539"
       y="30.221537"
       transform="rotate(-45)" /><rect
       style="fill:#bcb3ae;fill-opacity:1;stroke:#696363;stroke-width:0.5;stroke-linejoin:round;stroke-dasharray:none;stroke-opacity:1"
       id="rect3055"
       width="3.7275331"
       height="3.7275331"
       x="13.6749"
       y="55.221066"
       transform="rotate(-45)" /><rect
       style="fill:#bcb3ae;fill-opacity:1;stroke:#696363;stroke-width:0.5;stroke-linejoin:round;stroke-dasharray:none;stroke-opacity:1"
       id="rect3057"
       width="3.7275331"
       height="3.7275331"
       x="15.348573"
       y="32.499626"
       transform="rotate(-45)" /><rect
       style="fill:#bcb3ae;fill-opacity:1;stroke:#696363;stroke-width:0.5;stroke-linejoin:round;stroke-dasharray:none;stroke-opacity:1"
       id="rect3059"
       width="3.7275331"
       height="3.7275331"
       x="10.218843"
       y="31.956144"
       transform="rotate(-45)" /><rect
       style="fill:#bcb3ae;fill-opacity:1;stroke:#696363;stroke-width:0.5;stroke-linejoin:round;stroke-dasharray:none;stroke-opacity:1"
       id="rect3061"
       width="3.7275331"
       height="3.7275331"
       x="4.658916"
       y="31.858788"
       transform="rotate(-45)" /><rect
       style="fill:#bcb3ae;fill-opacity:1;stroke:#696363;stroke-width:0.5;stroke-linejoin:round;stroke-dasharray:none;stroke-opacity:1"
       id="rect3063"
       width="3.7275331"
       height="3.7275331"
       x="3.6553893"
       y="41.571964"
       transform="rotate(-45)" /><rect
       style="fill:#bcb3ae;fill-opacity:1;stroke:#696363;stroke-width:0.5;stroke-linejoin:round;stroke-dasharray:none;stroke-opacity:1"
       id="rect3065"
       width="3.7275331"
       height="3.7275331"
       x="9.2006216"
       y="41.90514"
       transform="rotate(-45)" /><rect
       style="fill:#bcb3ae;fill-opacity:1;stroke:#696363;stroke-width:0.5;stroke-linejoin:round;stroke-dasharray:none;stroke-opacity:1"
       id="rect3067"
       width="3.7275331"
       height="3.7275331"
       x="13.773986"
       y="42.229008"
       transform="rotate(-45)" /><rect
       style="fill:#bcb3ae;fill-opacity:1;stroke:#696363;stroke-width:0.5;stroke-linejoin:round;stroke-dasharray:none;stroke-opacity:1"
       id="rect3069"
       width="3.7275331"
       height="3.7275331"
       x="18.828903"
       y="42.524185"
       transform="rotate(-45)" /><rect
       style="fill:#bcb3ae;fill-opacity:1;stroke:#696363;stroke-width:0.5;stroke-linejoin:round;stroke-dasharray:none;stroke-opacity:1"
       id="rect3075"
       width="3.7275331"
       height="3.7275331"
       x="28.870249"
       y="48.625446"
       transform="rotate(-45)" /><rect
       style="fill:#bcb3ae;fill-opacity:1;stroke:#696363;stroke-width:0.5;stroke-linejoin:round;stroke-dasharray:none;stroke-opacity:1"
       id="rect3077"
       width="3.7275331"
       height="3.7275331"
       x="-2.5366719"
       y="48.547184"
       transform="rotate(-45)" /><text
       xml:space="preserve"
       transform="matrix(0.26458333,0,0,0.26458333,-5.6119955,0.81907166)"
       id="text3917"
       style="font-style:normal;font-weight:normal;font-size:24px;line-height:22.5px;font-family:sans-serif;letter-spacing:0px;word-spacing:0px;white-space:pre;shape-inside:url(#rect3919);display:inline;fill:#000000;fill-opacity:1;stroke:none"><tspan
         x="170.45898"
         y="24.018415"
         id="tspan651"><tspan
           style="font-family:'Victorian Std';-inkscape-font-specification:'Victorian Std'"
           id="tspan649">8.</tspan></tspan></text><text
       xml:space="preserve"
       transform="matrix(0.26458333,0,0,0.26458333,-5.5151332,41.640801)"
       id="text3925"
       style="font-style:normal;font-weight:normal;font-size:24px;line-height:22.5px;font-family:sans-serif;letter-spacing:0px;word-spacing:0px;white-space:pre;shape-inside:url(#rect3927);display:inline;fill:#000000;fill-opacity:1;stroke:none"><tspan
         x="170.45898"
         y="24.018415"
         id="tspan655"><tspan
           style="font-family:'Victorian Std';-inkscape-font-specification:'Victorian Std'"
           id="tspan653">6.</tspan></tspan></text><text
       xml:space="preserve"
       transform="matrix(0.26458333,0,0,0.26458333,57.555358,66.994472)"
       id="text3937"
       style="font-style:normal;font-weight:normal;font-size:24px;line-height:22.5px;font-family:sans-serif;letter-spacing:0px;word-spacing:0px;white-space:pre;shape-inside:url(#rect3939);display:inline;fill:#000000;fill-opacity:1;stroke:none"><tspan
         x="170.45898"
         y="24.018415"
         id="tspan659"><tspan
           style="font-family:'Victorian Std';-inkscape-font-specification:'Victorian Std'"
           id="tspan657">10.</tspan></tspan></text><rect
       style="fill:#bcb3ae;fill-opacity:1;stroke:#696363;stroke-width:0.451872;stroke-linejoin:round;stroke-dasharray:none;stroke-opacity:1"
       id="rect3943"
       width="3.3687351"
       height="3.3687351"
       x="29.495131"
       y="66.34037"
       transform="rotate(-45)" /><rect
       style="fill:#bcb3ae;fill-opacity:1;stroke:#696363;stroke-width:0.5;stroke-linejoin:round;stroke-dasharray:none;stroke-opacity:1"
       id="rect3945"
       width="3.7275331"
       height="3.7275331"
       x="29.799639"
       y="72.602028"
       transform="rotate(-45)" /><rect
       style="fill:#bcb3ae;fill-opacity:1;stroke:#756e6e;stroke-width:0.5;stroke-linejoin:round;stroke-dasharray:none;stroke-opacity:1"
       id="rect3951"
       width="7.2456284"
       height="3.4100912"
       x="47.092316"
       y="-23.410818"
       transform="rotate(45)" /><rect
       style="fill:#bcb3ae;fill-opacity:1;stroke:#696363;stroke-width:0.389553;stroke-linejoin:round;stroke-dasharray:none;stroke-opacity:1"
       id="rect4367"
       width="2.9041448"
       height="2.9041448"
       x="21.190088"
       y="59.954323"
       transform="rotate(-45)" /><rect
       style="fill:#bcb3ae;fill-opacity:1;stroke:#696363;stroke-width:0.5;stroke-linejoin:round;stroke-dasharray:none;stroke-opacity:1"
       id="rect4369"
       width="3.7275331"
       height="3.7275331"
       x="20.181843"
       y="64.458611"
       transform="rotate(-45)" /><rect
       style="fill:#bcb3ae;fill-opacity:1;stroke:#696363;stroke-width:0.389553;stroke-linejoin:round;stroke-dasharray:none;stroke-opacity:1"
       id="rect4371"
       width="2.9041448"
       height="2.9041448"
       x="28.376513"
       y="42.944801"
       transform="rotate(-45)" /><rect
       style="fill:#bcb3ae;fill-opacity:1;stroke:#756e6e;stroke-width:0.499999;stroke-linejoin:round;stroke-dasharray:none;stroke-opacity:1"
       id="rect4425"
       width="4.2472391"
       height="2.8120172"
       x="29.851007"
       y="80.17852"
       transform="rotate(-45)" /><rect
       style="fill:#bcb3ae;fill-opacity:1;stroke:#696363;stroke-width:0.5;stroke-linejoin:round;stroke-dasharray:none;stroke-opacity:1"
       id="rect4427"
       width="3.7275331"
       height="3.7275331"
       x="20.156984"
       y="80.511665"
       transform="rotate(-45)" /><rect
       style="fill:#bcb3ae;fill-opacity:1;stroke:#756e6e;stroke-width:0.499999;stroke-linejoin:round;stroke-dasharray:none;stroke-opacity:1"
       id="rect4429"
       width="4.2472391"
       height="2.8120172"
       x="19.418747"
       y="72.570076"
       transform="rotate(-45)" /><rect
       style="fill:#bcb3ae;fill-opacity:1;stroke:#696363;stroke-width:0.5;stroke-linejoin:round;stroke-dasharray:none;stroke-opacity:1"
       id="rect4431"
       width="3.7275331"
       height="3.7275331"
       x="30.204632"
       y="89.145439"
       transform="rotate(-45)" /><rect
       style="fill:#bcb3ae;fill-opacity:1;stroke:#756e6e;stroke-width:0.499999;stroke-linejoin:round;stroke-dasharray:none;stroke-opacity:1"
       id="rect4433"
       width="4.2472391"
       height="2.8120172"
       x="19.573704"
       y="90.912682"
       transform="rotate(-45)" /><rect
       style="fill:#bcb3ae;fill-opacity:1;stroke:#696363;stroke-width:0.5;stroke-linejoin:round;stroke-dasharray:none;stroke-opacity:1"
       id="rect4435"
       width="3.7275331"
       height="3.7275331"
       x="21.01651"
       y="95.40741"
       transform="rotate(-45)" /><rect
       style="fill:#bcb3ae;fill-opacity:1;stroke:#756e6e;stroke-width:0.5;stroke-linejoin:round;stroke-dasharray:none;stroke-opacity:1"
       id="rect4437"
       width="7.2456284"
       height="3.4100912"
       x="-37.34206"
       y="-101.30757"
       transform="rotate(135)" /><rect
       style="fill:#bcb3ae;fill-opacity:1;stroke:#756e6e;stroke-width:0.499999;stroke-linejoin:round;stroke-dasharray:none;stroke-opacity:1"
       id="rect4439"
       width="4.2472391"
       height="2.8120172"
       x="2.1982195"
       y="77.140915"
       transform="rotate(-45)" /><rect
       style="fill:#bcb3ae;fill-opacity:1;stroke:#696363;stroke-width:0.451872;stroke-linejoin:round;stroke-dasharray:none;stroke-opacity:1"
       id="rect4441"
       width="3.3687351"
       height="3.3687351"
       x="2.3033693"
       y="82.201805"
       transform="rotate(-45)" /><rect
       style="fill:#bcb3ae;fill-opacity:1;stroke:#696363;stroke-width:0.5;stroke-linejoin:round;stroke-dasharray:none;stroke-opacity:1"
       id="rect4443"
       width="3.7275331"
       height="3.7275331"
       x="1.2803839"
       y="87.951027"
       transform="rotate(-45)" /><rect
       style="fill:#bcb3ae;fill-opacity:1;stroke:#696363;stroke-width:0.5;stroke-linejoin:round;stroke-dasharray:none;stroke-opacity:1"
       id="rect4445"
       width="3.7275331"
       height="3.7275331"
       x="-8.0139961"
       y="76.566154"
       transform="rotate(-45)" /><rect
       style="fill:#bcb3ae;fill-opacity:1;stroke:#696363;stroke-width:0.5;stroke-linejoin:round;stroke-dasharray:none;stroke-opacity:1"
       id="rect4447"
       width="3.7275331"
       height="3.7275331"
       x="-8.2706566"
       y="85.015846"
       transform="rotate(-45)" /><rect
       style="fill:#bcb3ae;fill-opacity:1;stroke:#696363;stroke-width:0.5;stroke-linejoin:round;stroke-dasharray:none;stroke-opacity:1"
       id="rect4449"
       width="3.7275331"
       height="3.7275331"
       x="-8.2368135"
       y="92.965744"
       transform="rotate(-45)" /><text
       xml:space="preserve"
       transform="matrix(0.26458333,0,0,0.26458333,15.316422,2.5751715)"
       id="text4451"
       style="font-style:normal;font-weight:normal;font-size:24px;line-height:22.5px;font-family:sans-serif;letter-spacing:0px;word-spacing:0px;white-space:pre;shape-inside:url(#rect4453);display:inline;fill:#000000;fill-opacity:1;stroke:none"><tspan
         x="186.47461"
         y="223.80552"
         id="tspan663"><tspan
           style="font-family:'Victorian Std';-inkscape-font-specification:'Victorian Std'"
           id="tspan661">4.</tspan></tspan></text><rect
       style="fill:#bcb3ae;fill-opacity:1;stroke:#756e6e;stroke-width:0.499999;stroke-linejoin:round;stroke-dasharray:none;stroke-opacity:1"
       id="rect4469"
       width="11.94479"
       height="5.4731646"
       x="53.479324"
       y="-36.436489"
       transform="rotate(45)" /><text
       xml:space="preserve"
       transform="matrix(0.26458333,0,0,0.26458333,17.769934,12.61778)"
       id="text4465"
       style="font-style:normal;font-weight:normal;font-size:24px;line-height:22.5px;font-family:sans-serif;letter-spacing:0px;word-spacing:0px;white-space:pre;shape-inside:url(#rect4467);display:inline;fill:#000000;fill-opacity:1;stroke:none"><tspan
         x="170.45898"
         y="24.018415"
         id="tspan667"><tspan
           style="font-family:'Victorian Std';-inkscape-font-specification:'Victorian Std'"
           id="tspan665">9.</tspan></tspan></text><text
       xml:space="preserve"
       transform="matrix(0.26458333,0,0,0.26458333,-0.50527725,44.630421)"
       id="text5925"
       style="font-style:normal;font-weight:normal;font-size:24px;line-height:22.5px;font-family:sans-serif;letter-spacing:0px;word-spacing:0px;white-space:pre;shape-inside:url(#rect5927);display:inline;fill:#000000;fill-opacity:1;stroke:none"><tspan
         x="170.45898"
         y="24.018415"
         id="tspan671"><tspan
           style="font-family:'Victorian Std';-inkscape-font-specification:'Victorian Std'"
           id="tspan669">5.</tspan></tspan></text><text
       xml:space="preserve"
       transform="matrix(0.26458333,0,0,0.26458333,-22.854396,27.194954)"
       id="text6426"
       style="font-style:normal;font-weight:normal;font-size:24px;line-height:22.5px;font-family:sans-serif;letter-spacing:0px;word-spacing:0px;white-space:pre;shape-inside:url(#rect6428);display:inline;fill:#000000;fill-opacity:1;stroke:none"><tspan
         x="186.47461"
         y="223.80552"
         id="tspan675"><tspan
           style="font-family:'Victorian Std';-inkscape-font-specification:'Victorian Std'"
           id="tspan673">2.</tspan></tspan></text><rect
       style="fill:#bcb3ae;fill-opacity:1;stroke:#696363;stroke-width:0.5;stroke-linejoin:round;stroke-dasharray:none;stroke-opacity:1"
       id="rect1476"
       width="1.6440042"
       height="22.491655"
       x="13.952229"
       y="111.23681"
       transform="rotate(-18.339781)" /><text
       xml:space="preserve"
       transform="matrix(0.26458333,0,0,0.26458333,-27.366039,57.96184)"
       id="text6432"
       style="font-style:normal;font-weight:normal;font-size:24px;line-height:22.5px;font-family:sans-serif;letter-spacing:0px;word-spacing:0px;white-space:pre;shape-inside:url(#rect6434);display:inline;fill:#000000;fill-opacity:1;stroke:none"><tspan
         x="186.47461"
         y="223.80552"
         id="tspan679"><tspan
           style="font-family:'Victorian Std';-inkscape-font-specification:'Victorian Std'"
           id="tspan677">3.</tspan></tspan></text><rect
       style="fill:#bcb3ae;fill-opacity:1;stroke:#696363;stroke-width:0.5;stroke-linejoin:round;stroke-dasharray:none;stroke-opacity:1"
       id="rect354"
       width="1.6440048"
       height="18.458368"
       x="49.946133"
       y="110.3493"
       transform="rotate(-18.339781)" /><rect
       style="fill:#bcb3ae;fill-opacity:1;stroke:#696363;stroke-width:0.5;stroke-linejoin:round;stroke-dasharray:none;stroke-opacity:1"
       id="rect1472"
       width="1.6440048"
       height="18.677347"
       x="39.630535"
       y="110.38451"
       transform="rotate(-18.339781)" /><rect
       style="fill:#bcb3ae;fill-opacity:1;stroke:#696363;stroke-width:0.5;stroke-linejoin:round;stroke-dasharray:none;stroke-opacity:1"
       id="rect1474"
       width="1.6440048"
       height="19.551769"
       x="28.229191"
       y="111.09909"
       transform="rotate(-18.339781)" /><rect
       style="fill:#bcb3ae;fill-opacity:1;stroke:#696363;stroke-width:0.499999;stroke-linejoin:round;stroke-dasharray:none;stroke-opacity:1"
       id="rect1601"
       width="79.277687"
       height="3.6126318"
       x="-11.638781"
       y="110.24686"
       transform="rotate(-18.811194)" /><text
       xml:space="preserve"
       transform="matrix(0.26458333,0,0,0.26458333,33.413767,30.834037)"
       id="text4459"
       style="font-style:normal;font-weight:normal;font-size:24px;line-height:22.5px;font-family:sans-serif;letter-spacing:0px;word-spacing:0px;white-space:pre;shape-inside:url(#rect4461);display:inline;fill:#000000;fill-opacity:1;stroke:none"><tspan
         x="186.47461"
         y="223.80552"
         id="tspan683"><tspan
           style="font-family:'Victorian Std';-inkscape-font-specification:'Victorian Std'"
           id="tspan681">1.</tspan></tspan></text><text
       xml:space="preserve"
       transform="matrix(0.26458333,0,0,0.26458333,-24.181455,27.201916)"
       id="text3931"
       style="font-style:normal;font-weight:normal;font-size:24px;line-height:22.5px;font-family:sans-serif;letter-spacing:0px;word-spacing:0px;white-space:pre;shape-inside:url(#rect3933);display:inline;fill:#000000;fill-opacity:1;stroke:none"><tspan
         x="170.45898"
         y="24.018415"
         id="tspan687"><tspan
           style="font-family:'Victorian Std';-inkscape-font-specification:'Victorian Std'"
           id="tspan685">7.</tspan></tspan></text><text
       xml:space="preserve"
       style="font-style:normal;font-weight:normal;font-size:5.64444px;line-height:5.29167px;font-family:sans-serif;letter-spacing:0px;word-spacing:0px;fill:#000000;fill-opacity:1;stroke:none;stroke-width:0.264583"
       x="88.403252"
       y="90.629005"
       id="text494"><tspan
         sodipodi:role="line"
         id="tspan492"
         style="stroke-width:0.264583"></tspan></text></g></svg>
