<?xml version="1.0" encoding="UTF-8" standalone="no"?>
<svg
   width="6.2199998in"
   height="6.9133301in"
   viewBox="0 0 157.98799 175.59859"
   version="1.1"
   id="svg8"
   inkscape:version="1.2.2 (b0a8486541, 2022-12-01)"
   sodipodi:docname="map-Namaman-full-river_only-now_through_unison.svg"
   xml:space="preserve"
   inkscape:export-filename="../../images/map-Namaman-Full.png"
   inkscape:export-xdpi="300"
   inkscape:export-ydpi="300"
   xmlns:inkscape="http://www.inkscape.org/namespaces/inkscape"
   xmlns:sodipodi="http://sodipodi.sourceforge.net/DTD/sodipodi-0.dtd"
   xmlns="http://www.w3.org/2000/svg"
   xmlns:svg="http://www.w3.org/2000/svg"
   xmlns:rdf="http://www.w3.org/1999/02/22-rdf-syntax-ns#"
   xmlns:cc="http://creativecommons.org/ns#"
   xmlns:dc="http://purl.org/dc/elements/1.1/"><defs
     id="defs2"><inkscape:path-effect
       effect="offset"
       id="path-effect8005"
       is_visible="true"
       lpeversion="1.2"
       linejoin_type="miter"
       unit="mm"
       offset="0.1"
       miter_limit="4"
       attempt_force_join="false"
       update_on_knot_move="true" /><inkscape:path-effect
       effect="offset"
       id="path-effect7631"
       is_visible="true"
       lpeversion="1.2"
       linejoin_type="miter"
       unit="mm"
       offset="0.2"
       miter_limit="4"
       attempt_force_join="false"
       update_on_knot_move="true" /><marker
       style="overflow:visible"
       id="TriangleOutL"
       refX="0"
       refY="0"
       orient="auto"
       inkscape:stockid="TriangleOutL"
       inkscape:isstock="true"><path
         transform="scale(0.8)"
         style="fill:#ababab;fill-opacity:1;fill-rule:evenodd;stroke:#ababab;stroke-width:1pt;stroke-opacity:1"
         d="M 5.77,0 -2.88,5 V -5 Z"
         id="path1405" /></marker><marker
       style="overflow:visible"
       id="TriangleInL"
       refX="0.0"
       refY="0.0"
       orient="auto"
       inkscape:stockid="TriangleInL"
       inkscape:isstock="true"><path
         transform="scale(-0.8)"
         style="fill-rule:evenodd;stroke:#000000;stroke-width:1pt;stroke-opacity:1;fill:#000000;fill-opacity:1"
         d="M 5.77,0.0 L -2.88,5.0 L -2.88,-5.0 L 5.77,0.0 z "
         id="path1396" /></marker><marker
       style="overflow:visible;"
       id="Arrow2Mend"
       refX="0.0"
       refY="0.0"
       orient="auto"
       inkscape:stockid="Arrow2Mend"
       inkscape:isstock="true"><path
         transform="scale(0.6) rotate(180) translate(0,0)"
         d="M 8.7185878,4.0337352 L -2.2072895,0.016013256 L 8.7185884,-4.0017078 C 6.9730900,-1.6296469 6.9831476,1.6157441 8.7185878,4.0337352 z "
         style="fill-rule:evenodd;stroke-width:0.625;stroke-linejoin:round;stroke:#000000;stroke-opacity:1;fill:#000000;fill-opacity:1"
         id="path1290" /></marker><marker
       style="overflow:visible;"
       id="Arrow2Lend"
       refX="0.0"
       refY="0.0"
       orient="auto"
       inkscape:stockid="Arrow2Lend"
       inkscape:isstock="true"><path
         transform="scale(1.1) rotate(180) translate(1,0)"
         d="M 8.7185878,4.0337352 L -2.2072895,0.016013256 L 8.7185884,-4.0017078 C 6.9730900,-1.6296469 6.9831476,1.6157441 8.7185878,4.0337352 z "
         style="fill-rule:evenodd;stroke-width:0.625;stroke-linejoin:round;stroke:#000000;stroke-opacity:1;fill:#000000;fill-opacity:1"
         id="path1284" /></marker><marker
       style="overflow:visible;"
       id="marker1667"
       refX="0.0"
       refY="0.0"
       orient="auto"
       inkscape:stockid="Arrow1Lend"
       inkscape:isstock="true"><path
         transform="scale(0.8) rotate(180) translate(12.5,0)"
         style="fill-rule:evenodd;stroke:#000000;stroke-width:1pt;stroke-opacity:1;fill:#000000;fill-opacity:1"
         d="M 0.0,0.0 L 5.0,-5.0 L -12.5,0.0 L 5.0,5.0 L 0.0,0.0 z "
         id="path1665" /></marker><marker
       style="overflow:visible;"
       id="marker1633"
       refX="0.0"
       refY="0.0"
       orient="auto"
       inkscape:stockid="Arrow1Lend"
       inkscape:isstock="true"><path
         transform="scale(0.8) rotate(180) translate(12.5,0)"
         style="fill-rule:evenodd;stroke:#000000;stroke-width:1pt;stroke-opacity:1;fill:#000000;fill-opacity:1"
         d="M 0.0,0.0 L 5.0,-5.0 L -12.5,0.0 L 5.0,5.0 L 0.0,0.0 z "
         id="path1631" /></marker><marker
       style="overflow:visible;"
       id="Arrow2Send"
       refX="0.0"
       refY="0.0"
       orient="auto"
       inkscape:stockid="Arrow2Send"
       inkscape:isstock="true"><path
         transform="scale(0.3) rotate(180) translate(-2.3,0)"
         d="M 8.7185878,4.0337352 L -2.2072895,0.016013256 L 8.7185884,-4.0017078 C 6.9730900,-1.6296469 6.9831476,1.6157441 8.7185878,4.0337352 z "
         style="fill-rule:evenodd;stroke-width:0.625;stroke-linejoin:round;stroke:#000000;stroke-opacity:1;fill:#000000;fill-opacity:1"
         id="path1296" /></marker><marker
       style="overflow:visible;"
       id="marker1573"
       refX="0.0"
       refY="0.0"
       orient="auto"
       inkscape:stockid="Arrow1Lend"
       inkscape:isstock="true"><path
         transform="scale(0.8) rotate(180) translate(12.5,0)"
         style="fill-rule:evenodd;stroke:#000000;stroke-width:1pt;stroke-opacity:1;fill:#000000;fill-opacity:1"
         d="M 0.0,0.0 L 5.0,-5.0 L -12.5,0.0 L 5.0,5.0 L 0.0,0.0 z "
         id="path1571" /></marker><rect
       x="1.3229167"
       y="9.260417"
       width="9.5250003"
       height="13.758334"
       id="rect1237" /><marker
       style="overflow:visible"
       id="TriangleOutL-9"
       refX="0"
       refY="0"
       orient="auto"
       inkscape:stockid="TriangleOutL"
       inkscape:isstock="true"><path
         transform="scale(0.8)"
         style="fill:#ababab;fill-opacity:1;fill-rule:evenodd;stroke:#ababab;stroke-width:1pt;stroke-opacity:1"
         d="M 5.77,0 -2.88,5 V -5 Z"
         id="path1405-7" /></marker><marker
       style="overflow:visible"
       id="TriangleOutL-8"
       refX="0"
       refY="0"
       orient="auto"
       inkscape:stockid="TriangleOutL"
       inkscape:isstock="true"><path
         transform="scale(0.8)"
         style="fill:#ababab;fill-opacity:1;fill-rule:evenodd;stroke:#ababab;stroke-width:1pt;stroke-opacity:1"
         d="M 5.77,0 -2.88,5 V -5 Z"
         id="path1405-6" /></marker><marker
       style="overflow:visible"
       id="TriangleOutL-8-4"
       refX="0"
       refY="0"
       orient="auto"
       inkscape:stockid="TriangleOutL"
       inkscape:isstock="true"><path
         transform="scale(0.8)"
         style="fill:#ababab;fill-opacity:1;fill-rule:evenodd;stroke:#ababab;stroke-width:1pt;stroke-opacity:1"
         d="M 5.77,0 -2.88,5 V -5 Z"
         id="path1405-6-8" /></marker><marker
       style="overflow:visible"
       id="TriangleOutL-8-8"
       refX="0"
       refY="0"
       orient="auto"
       inkscape:stockid="TriangleOutL"
       inkscape:isstock="true"><path
         transform="scale(0.8)"
         style="fill:#ababab;fill-opacity:1;fill-rule:evenodd;stroke:#ababab;stroke-width:1pt;stroke-opacity:1"
         d="M 5.77,0 -2.88,5 V -5 Z"
         id="path1405-6-9" /></marker><marker
       style="overflow:visible"
       id="TriangleOutL-9-7"
       refX="0"
       refY="0"
       orient="auto"
       inkscape:stockid="TriangleOutL"
       inkscape:isstock="true"><path
         transform="scale(0.8)"
         style="fill:#ababab;fill-opacity:1;fill-rule:evenodd;stroke:#ababab;stroke-width:1pt;stroke-opacity:1"
         d="M 5.77,0 -2.88,5 V -5 Z"
         id="path1405-7-6" /></marker><marker
       style="overflow:visible"
       id="TriangleOutL-9-7-3"
       refX="0"
       refY="0"
       orient="auto"
       inkscape:stockid="TriangleOutL"
       inkscape:isstock="true"><path
         transform="scale(0.8)"
         style="fill:#ababab;fill-opacity:1;fill-rule:evenodd;stroke:#ababab;stroke-width:1pt;stroke-opacity:1"
         d="M 5.77,0 -2.88,5 V -5 Z"
         id="path1405-7-6-0" /></marker><marker
       style="overflow:visible"
       refX="0"
       refY="0"
       orient="auto"
       inkscape:stockid="TriangleOutL-9-7-37600"
       inkscape:isstock="true"
       id="TriangleOutL-9-7-37600"><path
         transform="scale(0.8)"
         style="fill:#ffffff;fill-opacity:1;fill-rule:evenodd;stroke:#000000;stroke-width:1pt;stroke-opacity:1"
         d="M 5.77,0 -2.88,5 V -5 Z"
         id="path42626" /></marker><marker
       style="overflow:visible"
       refX="0"
       refY="0"
       orient="auto"
       inkscape:stockid="TriangleOutL-9-7-376007634"
       inkscape:isstock="true"
       id="TriangleOutL-9-7-376007634"><path
         transform="scale(0.8)"
         style="fill:#676767;fill-opacity:1;fill-rule:evenodd;stroke:#676767;stroke-width:1pt;stroke-opacity:1"
         d="M 5.77,0 -2.88,5 V -5 Z"
         id="path43478" /></marker><marker
       style="overflow:visible"
       refX="0"
       refY="0"
       orient="auto"
       inkscape:stockid="TriangleOutL-85069"
       inkscape:isstock="true"
       id="TriangleOutL-85069"><path
         transform="scale(0.8)"
         style="fill:#676767;fill-opacity:1;fill-rule:evenodd;stroke:#676767;stroke-width:1pt;stroke-opacity:1"
         d="M 5.77,0 -2.88,5 V -5 Z"
         id="path45187" /></marker><marker
       style="overflow:visible"
       refX="0"
       refY="0"
       orient="auto"
       inkscape:stockid="TriangleOutL-8-42667"
       inkscape:isstock="true"
       id="TriangleOutL-8-42667"><path
         transform="scale(0.8)"
         style="fill:#676767;fill-opacity:1.0;fill-rule:evenodd;stroke:#676767;stroke-width:1pt;stroke-opacity:1.0"
         d="M 5.77,0 -2.88,5 V -5 Z"
         id="path45190" /></marker><marker
       style="overflow:visible"
       refX="0"
       refY="0"
       orient="auto"
       inkscape:stockid="TriangleOutL8130"
       inkscape:isstock="true"
       id="TriangleOutL8130"><path
         transform="scale(0.8)"
         style="fill:#676767;fill-opacity:1.0;fill-rule:evenodd;stroke:#676767;stroke-width:1pt;stroke-opacity:1.0"
         d="M 5.77,0 -2.88,5 V -5 Z"
         id="path45193" /></marker><marker
       style="overflow:visible"
       refX="0"
       refY="0"
       orient="auto"
       inkscape:stockid="TriangleOutL-9-7-3760076341363"
       inkscape:isstock="true"
       id="TriangleOutL-9-7-3760076341363"><path
         transform="scale(0.8)"
         style="fill:#676767;fill-opacity:1.0;fill-rule:evenodd;stroke:#676767;stroke-width:1pt;stroke-opacity:1.0"
         d="M 5.77,0 -2.88,5 V -5 Z"
         id="path45196" /></marker><marker
       style="overflow:visible"
       refX="0"
       refY="0"
       orient="auto"
       inkscape:stockid="TriangleOutL-94385"
       inkscape:isstock="true"
       id="TriangleOutL-94385"><path
         transform="scale(0.8)"
         style="fill:#676767;fill-opacity:1.0;fill-rule:evenodd;stroke:#676767;stroke-width:1pt;stroke-opacity:1.0"
         d="M 5.77,0 -2.88,5 V -5 Z"
         id="path45199" /></marker><marker
       style="overflow:visible"
       refX="0"
       refY="0"
       orient="auto"
       inkscape:stockid="TriangleOutL-9-77238"
       inkscape:isstock="true"
       id="TriangleOutL-9-77238"><path
         transform="scale(0.8)"
         style="fill:#676767;fill-opacity:1.0;fill-rule:evenodd;stroke:#676767;stroke-width:1pt;stroke-opacity:1.0"
         d="M 5.77,0 -2.88,5 V -5 Z"
         id="path45202" /></marker><marker
       style="overflow:visible"
       refX="0"
       refY="0"
       orient="auto"
       inkscape:stockid="TriangleOutL-8-87583"
       inkscape:isstock="true"
       id="TriangleOutL-8-87583"><path
         transform="scale(0.8)"
         style="fill:#676767;fill-opacity:1.0;fill-rule:evenodd;stroke:#676767;stroke-width:1pt;stroke-opacity:1.0"
         d="M 5.77,0 -2.88,5 V -5 Z"
         id="path45205" /></marker></defs><sodipodi:namedview
     id="base"
     pagecolor="#ffffff"
     bordercolor="#666666"
     borderopacity="1.0"
     inkscape:pageopacity="0.0"
     inkscape:pageshadow="2"
     inkscape:zoom="0.73323023"
     inkscape:cx="-19.093594"
     inkscape:cy="104.33285"
     inkscape:document-units="in"
     inkscape:current-layer="layer3"
     inkscape:document-rotation="0"
     showgrid="false"
     units="in"
     inkscape:window-width="1920"
     inkscape:window-height="1026"
     inkscape:window-x="1280"
     inkscape:window-y="0"
     inkscape:window-maximized="1"
     inkscape:showpageshadow="2"
     inkscape:pagecheckerboard="0"
     inkscape:deskcolor="#d1d1d1" /><metadata
     id="metadata5"><rdf:RDF><cc:Work
         rdf:about=""><dc:format>image/svg+xml</dc:format><dc:type
           rdf:resource="http://purl.org/dc/dcmitype/StillImage" /></cc:Work></rdf:RDF></metadata><g
     inkscape:groupmode="layer"
     id="layer7"
     inkscape:label="old"
     style="display:none"><path
       style="fill:#696969;fill-opacity:1;stroke:none;stroke-width:0.0381;stroke-linecap:round;stroke-linejoin:round;stroke-dasharray:none;stroke-opacity:1"
       d="m 143.91369,44.625713 c -0.82467,0.26339 -1.3925,1.05218 -1.96319,1.66966 -0.9411,1.570147 -0.54227,3.706547 -1.91223,5.072207 -1.69812,1.902047 -3.19539,3.969527 -4.58685,6.097397 -2.23184,2.821687 -5.08819,5.186617 -6.82941,8.376594 -0.32298,1.04383 -0.81786,2.17784 -0.61097,3.282387 0.22739,0.40611 0.91247,0.57566 0.65164,1.16788 -0.0877,1.40499 0.79587,2.69799 1.85622,3.542417 -0.004,1.21233 0.15926,2.52162 -0.62166,3.55353 -0.55489,0.79439 -0.13984,1.879267 -0.87024,2.590537 -0.47884,0.50623 -0.70109,1.53135 -1.57794,1.26194 -1.1603,0.0737 -2.49601,-0.2692 -3.46878,0.55655 -0.91139,0.57894 -2.05699,0.40214 -2.98034,-0.1063 -0.56539,-0.24735 -1.2426,-0.55454 -1.78035,-0.0725 -0.52022,0.25114 -0.81655,-0.45077 -1.28958,-0.55784 -1.98586,-1.19079 -4.24337,-1.95023 -6.0725,-3.370337 -0.55227,-0.65129 -1.27521,-1.18847 -2.17325,-1.15471 -2.14533,-0.11186 -4.15947,-0.92005 -6.02883,-1.92934 -0.98228,-0.4638 -2.06818,-0.6548 -3.12565,-0.77438 -1.063267,-0.477367 -2.092447,-1.041157 -3.239597,-1.313597 -0.98869,-0.28569 -2.09989,-1.04757 -3.139857,-0.58291 -0.5152,0.4478 -1.40091,0.33571 -1.78852,1.00562 -0.60813,0.647837 -0.84306,1.496017 -0.95314,2.349797 -0.36931,0.89648 -0.44424,1.96545 0.18764,2.77305 0.49135,0.62378 0.84922,1.473067 0.35234,2.216487 -0.62617,1.1687 0.22828,2.73972 -0.84,3.71166 -0.19647,0.237517 -0.72505,0.561777 -0.23383,0.789617 0.0924,0.73122 1.11376,0.54056 1.63814,0.59997 1.00102,0.0844 2.05879,-0.12408 2.737497,-0.92647 0.26538,-0.22019 0.58859,-0.608207 0.93902,-0.331857 0.6579,0.193517 1.38174,0.0472 1.8123,-0.50643 0.61006,-0.29126 0.9082,0.680177 1.4919,0.715467 0.581897,0.28564 0.829577,-0.656777 1.311277,-0.620897 0.0577,0.33478 0.36746,0.621337 0.69557,0.36664 0.53523,-0.18138 0.98518,-0.87141 1.56993,-0.75499 0.60353,0.37218 1.28463,0.58617 1.90867,0.898917 0.51337,0.60027 1.21141,1.39211 2.09728,1.16504 0.61427,-0.20643 1.13661,0.51152 1.77173,0.32815 0.81503,0.31297 0.68392,1.60251 0.14521,2.07429 -0.50939,0.25706 -0.77451,0.86571 -1.34643,1.08055 -0.461,0.40308 -1.34893,0.768927 -1.29113,1.489317 0.58797,1.02327 1.42248,1.99856 1.43844,3.24264 0.041,0.26959 0.0339,1.04624 0.46713,0.64058 0.47654,-0.34672 1.13648,-0.0654 1.64305,-0.41831 0.68097,-0.22029 1.64765,-0.98713 2.22571,-0.15657 0.64844,0.57982 1.03543,1.427147 1.76474,1.887987 0.37127,0.8241 0.54948,1.8115 0.007,2.61637 -0.26768,0.43625 -0.42049,1.32391 0.32505,1.33972 0.61173,-0.0397 1.19475,0.17816 1.78464,0.21807 0.91096,-0.3172 1.81906,-0.65239 2.75875,-0.8679 0.78825,-0.72997 1.23864,-1.85304 1.28959,-2.9143 -0.0775,-0.80986 -0.89577,-1.330257 -0.75319,-2.182297 -0.10741,-0.90246 -0.7885,-1.60534 -1.16737,-2.3921 -0.38595,-0.17285 -0.77904,-0.67611 -0.26639,-0.96712 0.95908,-0.57673 1.89366,-1.222057 2.83962,-1.831417 0.48985,-0.2952 1.0806,-0.60363 1.61256,-0.20567 0.86526,0.4646 1.63915,-0.5799 2.53034,-0.51056 1.45522,-0.0614 3.1259,-0.20242 4.26692,0.90821 0.51406,0.38625 0.65207,1.087797 0.31393,1.627547 -0.0267,0.89612 1.11141,1.17039 1.69809,1.6043 0.58308,0.27469 0.50555,1.00725 1.00201,1.38079 0.55906,0.49021 1.06602,1.23878 0.64079,1.990317 -0.18082,0.27433 0.0973,0.62459 0.34029,0.31161 0.23724,-0.38614 0.81355,-0.16903 0.59815,0.29016 -0.10901,0.43263 -0.60434,0.26154 -0.709,-0.0827 -0.38339,0.0423 -0.14924,0.72719 -0.2142,1.00201 0.0238,0.93117 0.22073,1.96487 -0.41909,2.75228 -0.53884,1.242357 -0.51789,2.643717 -0.68479,3.969357 -0.0668,1.36087 0.14315,2.73631 -0.2534,4.06246 -0.12233,1.75031 -0.355,3.5264 -1.21181,5.09064 -0.49979,0.97196 -0.62319,2.45035 0.32272,3.18947 0.80673,0.41929 1.4174,-0.48375 1.73944,-1.09829 0.78816,-1.25313 0.76278,-2.81757 1.44176,-4.12387 0.46086,-0.97216 -0.005,-2.06635 0.41212,-3.05976 0.2742,-1.24156 1.15692,-2.35582 2.39649,-2.7249 1.20427,-1.05872 1.94562,-2.564 2.66752,-3.975 0.68599,-1.628967 2.13,-2.736827 3.1224,-4.162647 1.07059,-1.13509 2.13398,-2.365417 3.432,-3.227037 0.92218,-0.34269 1.68856,-1.0443 2.65539,-1.31258 0.62203,-0.52721 1.03919,-1.25684 1.77173,-1.68207 0.36217,-0.32226 0.96999,-0.75354 0.94749,-1.236097 0.3118,0.0522 0.0694,-0.58519 0.12867,-0.76165 -0.92431,-13.061384 -1.84864,-26.124095 -2.91264,-39.175069 -0.0328,-0.72057 -0.18205,-1.49146 -0.25047,-2.18111 0.30773,-0.313777 -0.39576,-0.558257 -0.59764,-0.699187 -0.84457,-0.4311 -1.85593,-0.55325 -2.49287,-1.31671 -0.33945,-0.21851 -0.66378,-0.58133 -1.09348,-0.59273 z"
       id="path18929" /><path
       style="fill:#a2a2a2;fill-opacity:1;stroke-width:0.0846667"
       d="m 93.144199,88.090039 c 0.141063,-0.0729 0.307255,-0.25419 0.369333,-0.40275 0.06208,-0.14857 0.274091,-0.42976 0.471144,-0.62486 0.328735,-0.32548 0.350884,-0.37429 0.268605,-0.59208 -0.187537,-0.4964 -0.189763,-0.77608 -0.0086,-1.08309 0.193844,-0.32854 0.14986,-0.35569 -0.283151,-0.17478 -0.16852,0.0704 -0.631867,0.13102 -1.089837,0.14254 -1.365352,0.0344 -1.855013,-0.0803 -1.855013,-0.43436 0,-0.20906 -0.214401,-0.36264 -0.416636,-0.29846 -0.184455,0.0585 -0.317483,0.41574 -0.40215,1.07984 -0.04127,0.32373 -0.02451,0.41056 0.08754,0.45356 0.104368,0.04 0.138582,0.16469 0.138582,0.50479 0,0.24839 0.0397,0.47614 0.08822,0.50613 0.04851,0.03 0.363703,0.0808 0.700405,0.11301 0.64941,0.062 1.073988,0.291 1.36602,0.73671 0.158843,0.24241 0.223241,0.25082 0.565557,0.0738 z"
       id="path5435" /><path
       style="fill:#a2a2a2;fill-opacity:1;stroke-width:0.0846667"
       d="m 103.33566,88.204129 c 0.1397,-0.005 0.43498,0.017 0.65617,0.0498 0.43236,0.0641 0.45654,0.0381 0.31367,-0.33768 -0.10865,-0.28577 0.0108,-0.62569 0.36487,-1.03804 0.17542,-0.2043 0.22995,-0.33744 0.19071,-0.46567 -0.0302,-0.0988 -0.0749,-0.40964 -0.0993,-0.69085 -0.0407,-0.4694 -0.0216,-0.54797 0.23392,-0.95895 0.21774,-0.35027 0.25872,-0.47849 0.18837,-0.58938 -0.0845,-0.133247 -0.17282,-0.155057 -0.71135,-0.175707 -0.11967,-0.005 -0.37338,-0.14169 -0.56379,-0.30467 -0.19041,-0.16299 -0.4212,-0.29634 -0.51287,-0.29634 -0.0917,0 -0.21411,-0.0572 -0.27208,-0.127 -0.1627,-0.19605 -0.37869,-0.15213 -0.68954,0.14019 -0.15627,0.14696 -0.52225,0.37915 -0.81329,0.51598 -0.29104,0.13684 -0.52917,0.268327 -0.52917,0.292187 0,0.0239 0.1524,0.23481 0.33867,0.46875 0.35217,0.4423 0.40135,0.65176 0.24745,1.05388 -0.0502,0.13109 -0.10477,0.4479 -0.12133,0.70401 -0.0279,0.43054 -0.11059,0.86086 -0.25642,1.3335 -0.0513,0.16617 -0.0278,0.19131 0.18393,0.19679 0.13348,0.004 0.3951,0.0785 0.58137,0.16671 0.23249,0.11015 0.44485,0.14664 0.67733,0.11639 0.18627,-0.0242 0.45297,-0.0485 0.59267,-0.0539 z"
       id="path5433" /><path
       style="fill:#a2a2a2;fill-opacity:1;stroke-width:0.0846667"
       d="m 98.766802,88.170479 c 0.164871,-0.10803 0.322368,-0.12469 0.74786,-0.0791 0.451384,0.0483 0.582988,0.031 0.809578,-0.10682 0.42302,-0.25726 0.70372,-0.86941 0.72436,-1.57969 0.01,-0.32735 0.0475,-0.73998 0.0844,-0.91694 0.0592,-0.28367 0.0396,-0.35055 -0.16602,-0.56513 -0.14448,-0.1508 -0.26172,-0.39615 -0.3082,-0.64496 -0.0413,-0.220867 -0.0946,-0.421157 -0.11852,-0.445077 -0.0239,-0.0239 -0.16857,0.0777 -0.32144,0.22587 -0.15286,0.148157 -0.361069,0.269377 -0.462686,0.269377 -0.329099,0 -0.839445,-0.256437 -0.937159,-0.470897 -0.109685,-0.24073 -0.612131,-0.50857 -0.810928,-0.43228 -0.07479,0.0287 -0.173254,0.15024 -0.218821,0.27011 -0.11756,0.30919 -0.604266,0.495147 -1.117693,0.42704 -0.223063,-0.0296 -0.405579,-0.0209 -0.405579,0.0193 0,0.18972 -0.539818,0.85674 -0.770772,0.9524 -0.142748,0.0591 -0.389288,0.24443 -0.547877,0.41177 -0.250732,0.26458 -0.281373,0.34293 -0.23495,0.6006 0.02936,0.16298 0.176419,0.43382 0.326779,0.60184 0.15036,0.16803 0.287884,0.34075 0.305604,0.3838 0.01772,0.0431 0.175447,0.16167 0.350503,0.26359 0.323749,0.1885 0.642028,0.1632 0.781279,-0.0621 0.03172,-0.0513 0.121149,-0.075 0.198729,-0.0526 0.07757,0.0224 0.302709,0.0825 0.500304,0.13355 0.265828,0.0687 0.393912,0.1598 0.492447,0.35036 0.08004,0.15478 0.274532,0.32172 0.487401,0.41837 0.429099,0.19482 0.36101,0.19173 0.611361,0.0277 z"
       id="path5431" /><path
       style="fill:#a2a2a2;fill-opacity:1;stroke-width:0.0846667"
       d="m 106.46267,88.595729 c 0.51443,-0.6015 1.11605,-1.07666 1.49625,-1.18173 0.1115,-0.0308 0.35514,-0.24241 0.54141,-0.47021 0.50192,-0.61384 0.71796,-0.8378 0.80818,-0.8378 0.0444,0 0.0805,-0.0476 0.0801,-0.10583 -9.3e-4,-0.13675 -0.66052,-0.49676 -0.72348,-0.39487 -0.11537,0.18667 -0.8736,-0.0691 -1.13363,-0.38244 -0.1002,-0.12074 -0.13708,-0.11729 -0.38533,0.0361 -0.3555,0.21971 -0.38493,0.2171 -1.03202,-0.0917 -0.52511,-0.25061 -0.55265,-0.25497 -0.66766,-0.10583 -0.20124,0.26093 -0.23159,0.5243 -0.12068,1.04692 0.0912,0.42958 0.0874,0.53939 -0.0264,0.77928 -0.3054,0.64357 -0.32047,0.73936 -0.18128,1.1521 0.0732,0.21703 0.18181,0.47079 0.24139,0.56392 0.0596,0.0931 0.13475,0.27658 0.16705,0.40767 0.0929,0.37721 0.35908,0.25905 0.93607,-0.4156 z"
       id="path5429" /><path
       style="fill:#a2a2a2;fill-opacity:1;stroke-width:0.0846667"
       d="m 107.12675,89.302159 c 0.18928,-0.15134 0.5567,-0.38947 0.81652,-0.52917 0.32471,-0.17459 0.51874,-0.34664 0.62067,-0.55033 0.0999,-0.19976 0.20715,-0.29633 0.32895,-0.29633 0.2443,0 0.49857,-0.36144 0.55612,-0.7905 0.0369,-0.27525 0.02,-0.3525 -0.0773,-0.3525 -0.0685,0 -0.16796,0.0952 -0.22099,0.21166 -0.053,0.11642 -0.13483,0.21167 -0.18173,0.21167 -0.0469,0 -0.18326,0.14806 -0.30302,0.32903 -0.16435,0.24835 -0.3091,0.3546 -0.59033,0.43334 -0.36527,0.10227 -1.057,0.60871 -1.057,0.77387 0,0.046 -0.0985,0.21289 -0.21892,0.37075 -0.12042,0.15786 -0.19436,0.326767 -0.16434,0.375357 0.0795,0.12866 0.11244,0.11613 0.49135,-0.186847 z"
       id="path5427" /><path
       style="fill:#a2a2a2;fill-opacity:1;stroke-width:0.0846667"
       d="m 103.44579,90.327206 c 0.17226,-0.007 0.57038,-0.003 0.8847,0.009 0.53547,0.0195 0.72233,-0.0628 0.48106,-0.21186 -0.0497,-0.0307 -0.0723,-0.10312 -0.0502,-0.16084 0.0571,-0.14876 -0.0159,-0.22919 -0.48774,-0.53722 -0.49774,-0.324957 -0.87527,-0.349867 -1.25892,-0.0831 -0.70197,0.488177 -0.76751,0.642427 -0.52227,1.229377 l 0.13048,0.31227 0.25482,-0.27265 c 0.19073,-0.20409 0.33358,-0.2757 0.56803,-0.28477 z"
       id="path5425" /></g><g
     inkscape:label="common"
     inkscape:groupmode="layer"
     id="layer1"><path
       id="path9265"
       style="fill:#5087a1;fill-opacity:1;stroke-width:0.0762;stroke-dasharray:none"
       d="m 93.848017,45.97032 c -0.05491,-3.14e-4 -0.118467,0.0023 -0.190686,0.0083 -0.677349,0.05617 -0.892336,0.289381 -1.195275,1.296045 -0.1203,0.399767 -0.157698,0.693003 -0.252698,1.977141 -0.02188,0.295861 -0.07934,0.585191 -0.127641,0.643371 -0.04829,0.05818 -0.109192,0.406886 -0.135392,0.77463 -0.02618,0.367744 -0.119856,0.973638 -0.208256,1.346171 -0.18519,0.780738 -0.254837,1.517129 -0.284737,3.005501 -0.0234,1.164466 -0.191526,1.782558 -0.625285,2.298051 -0.196741,0.233794 -0.219822,0.327254 -0.202572,0.829407 0.01665,0.484757 -0.01105,0.611326 -0.19482,0.882117 -0.117981,0.173855 -0.214457,0.339059 -0.214457,0.367419 0,0.07254 -0.3916,0.934934 -0.601514,1.324984 -0.09644,0.179213 -0.248701,0.549725 -0.338481,0.823205 -0.08978,0.273479 -0.279397,0.668971 -0.421162,0.879016 -0.141757,0.210047 -0.332287,0.652297 -0.423747,0.982369 -0.09147,0.330074 -0.227194,0.692565 -0.301274,0.805636 -0.158149,0.241365 -0.38243,1.43703 -0.31781,1.69447 0.06086,0.242499 -0.173796,1.41332 -0.397392,1.982825 -0.100558,0.256115 -0.213981,0.655995 -0.252181,0.888834 -0.03819,0.23283 -0.105798,0.613631 -0.150378,0.84646 -0.0446,0.23284 -0.07148,0.956758 -0.05994,1.608688 0.01939,1.095579 0.03867,1.223907 0.256832,1.693436 0.12982,0.2794 0.362773,0.622528 0.517798,0.762228 0.214198,0.193019 0.304224,0.365456 0.374654,0.719336 0.05097,0.256119 0.11493,0.578525 0.14211,0.716235 0.02718,0.13771 0.15034,0.389633 0.273885,0.560172 0.123537,0.17055 0.27373,0.477126 0.33383,0.681096 0.0601,0.20398 0.167249,0.491341 0.238229,0.638721 0.07097,0.147369 0.108272,0.302248 0.08268,0.343648 -0.0799,0.12929 0.111467,0.814359 0.314193,1.124479 0.362991,0.380597 0.650273,0.750713 1.038179,0.983402 0.372344,0.09737 -1.126606,1.832262 -1.383986,2.225642 -0.07448,0.11384 -0.13095,0.446537 -0.14366,0.846977 -0.0132,0.415949 -0.06166,0.693575 -0.131258,0.751375 -0.0607,0.05038 -0.110588,0.160763 -0.110588,0.245463 0,0.08468 -0.03619,0.176105 -0.08061,0.203605 -0.04441,0.02745 -0.106406,0.278569 -0.137976,0.557589 -0.03156,0.279029 -0.09082,0.527421 -0.131258,0.552421 -0.04044,0.02499 -0.07338,0.149872 -0.07338,0.277502 0,0.12764 -0.0328,0.268443 -0.07286,0.312643 -0.02228,0.0406 -0.03459,0.06357 -0.05116,0.09302 -0.003,0.0023 -0.0064,0.0044 -0.0093,0.0067 -0.357302,0.45438 -0.274107,1.090159 -0.248564,1.629358 -0.0094,0.41432 0.161365,0.812492 0.490926,1.069702 0.160139,0.28341 0.457407,0.255786 0.73949,0.241846 0.415163,-0.0461 0.81753,0.124333 1.090373,0.437183 0.268759,0.204399 0.521537,0.679089 0.925008,0.528649 0.561807,-0.187769 2.620161,-1.550723 3.15442,-1.776573 0.648306,0.0395 1.268951,0.572434 1.938383,0.353984 0.278569,-0.0847 0.649772,-0.403588 0.907955,-0.115239 0.172736,0.23785 0.311914,0.554899 0.644405,0.594279 0.810883,0.18767 1.657492,0.131949 2.483055,0.09922 0.52278,-0.0386 1.05574,-0.2538 1.56993,-0.03669 0.29628,0.15056 0.62346,0.205393 0.94568,0.264583 -0.29489,0.32455 -0.90462,0.512515 -0.83354,1.045931 -0.0211,0.48154 0.0513,1.060142 0.46715,1.365291 0.22108,0.006 0.20962,-0.334375 0.15348,-0.484724 -0.10139,-0.28575 -0.32894,-0.682743 -0.0672,-0.948263 0.32852,-0.33644 0.80573,-0.714495 1.3007,-0.502295 0.29712,0.134667 0.63386,0.289206 0.83354,0.558106 -0.005,0.176329 0.20748,0.07552 0.29352,0.174149 0.40795,0.2246 0.81867,0.541172 0.89762,1.033012 0.0432,0.29065 0.19299,0.552022 0.45372,0.697632 0.41801,0.27364 0.45405,0.814634 0.63613,1.237134 0.11869,0.374679 0.16585,0.448071 0.19586,0.839225 0.0254,0.331003 -0.0163,0.795022 0.01,1.156518 0.0257,0.360328 0.009,0.417835 0.006,0.77463 -8.3e-4,0.119187 -0.11433,0.252983 -0.12403,0.566891 -0.005,0.156953 0.006,0.351903 0.0124,0.628385 0.004,0.190872 0.13697,0.331225 0.10697,0.56224 -0.015,0.115507 -0.0276,0.253893 -0.0796,0.37052 -0.052,0.116625 -0.14362,0.21156 -0.14367,0.240812 -0.0569,0.104404 -0.13371,0.53803 -0.11988,0.667142 0.0142,0.132311 0.0457,0.18958 0.094,0.290422 0.0572,0.119372 0.0745,0.330728 0.19688,0.417029 0.0888,0.06269 0.14105,0.04493 0.25012,0.08216 0.10907,0.03723 0.19406,0.154321 0.31471,0.180351 0.12066,0.02602 0.44194,0.131207 0.7059,0.129191 0.12916,-9.87e-4 0.21739,-0.0204 0.33279,0.04289 0.0228,0.01251 0.13274,0.02862 0.36174,0.13643 0.11482,0.0507 0.26849,0.0233 0.54053,0.20773 0.10213,0.0885 0.11388,0.11059 0.19327,0.19017 0.0397,0.0398 0.0722,0.13345 0.12609,0.23565 0.0539,0.10221 0.0519,0.10254 0.12144,0.17777 0.0559,0.0605 0.0465,0.51182 0.0589,0.55087 0.41416,-0.70087 0.2307,-1.9974 0.5426,-2.343013 -0.15268,0.03184 -0.20523,0.0072 -0.33693,0.0072 -0.1317,-3.9e-5 -0.29511,0.01302 -0.37466,0.0072 -0.11809,-0.0086 -0.25933,0.08083 -0.33434,0.139526 -0.0375,0.02934 -0.17722,0.01696 -0.33073,0.03566 -0.0903,0.011 -0.16428,-0.03645 -0.25373,-0.05013 -0.11815,-0.01807 -0.13698,0.0035 -0.1788,0 -0.0473,-0.004 -0.22567,-0.16961 -0.31006,-0.208773 -0.0844,-0.03916 -0.13082,-0.02269 -0.14728,-0.03721 -0.0417,-0.03679 -0.12143,-0.124427 -0.18965,-0.207222 -0.0338,-0.04103 -0.15386,-0.121014 -0.24547,-0.219625 -0.0764,-0.08225 -0.12897,-0.157331 -0.20308,-0.234611 -0.0853,-0.08895 -0.16934,-0.08336 -0.16589,-0.279053 0.002,-0.103326 0.0644,-0.208417 0.0796,-0.291455 0.0153,-0.08304 -0.0228,-0.194249 -0.0662,-0.253214 -0.048,-0.06515 -0.0914,-0.158018 -0.0904,-0.232544 0.002,-0.149274 -0.0574,-0.156838 -0.0863,-0.218592 -0.0289,-0.06175 -0.0389,-0.132502 -0.0558,-0.192753 -0.0169,-0.06025 -0.0241,-0.118372 -0.0274,-0.17725 -0.0122,-0.220266 -0.0747,-0.210342 -0.0703,-0.247013 0.006,-0.05007 0.11914,-0.290239 0.14779,-0.408244 0.0573,-0.236008 0.0557,-0.601081 0.0289,-0.868164 -0.0267,-0.265772 0.018,-0.423098 0.009,-0.737423 -0.0146,-0.08998 -0.005,-0.196822 -0.001,-0.282153 0.004,-0.08953 0.0179,-0.164369 0.001,-0.252698 -0.0168,-0.08833 0.0557,-0.217757 0.0429,-0.309025 -0.0127,-0.09127 -0.0226,-0.184404 -0.0279,-0.28112 0.0902,-0.378403 -0.11129,-0.542677 -0.22789,-0.960665 -0.11875,-0.411654 -0.22093,-0.864115 -0.59015,-1.192175 -0.26957,-0.33153 -0.58065,-0.742832 -0.48885,-1.191142 0.18482,-0.249319 0.51419,-0.381669 0.59944,-0.701766 0.21471,-0.346629 0.38199,-0.749774 0.77153,-0.938444 0.37065,-0.276799 0.89759,-0.335672 1.15704,-0.750341 0.22052,-0.21934 0.42162,-0.465898 0.6258,-0.693498 0.26311,0.0586 0.25739,-0.300582 0.20567,-0.466121 -0.0492,-0.12295 -0.0306,-0.42894 -0.22066,-0.38654 -0.60238,0.407819 -0.91191,1.171332 -1.61902,1.438672 -0.74797,0.411889 -1.23433,1.147508 -1.89653,1.662947 -0.22328,0.10635 -0.23195,-0.213141 -0.30695,-0.341581 -0.15709,-0.40117 -0.42571,-0.807876 -0.38964,-1.247986 0.0846,-0.331379 0.28532,-0.636115 0.3514,-0.962215 -0.0286,-0.450599 -0.26819,-0.965647 -0.0222,-1.391646 0.17673,-0.1372 0.21381,-0.319618 0.0398,-0.497128 -0.091,-0.102049 -0.13366,-0.379377 -0.30024,-0.340547 -0.308,0.440729 -0.59284,0.967335 -0.46458,1.524455 0.0256,0.326569 0.19641,0.721592 -0.1018,0.981852 -0.26561,0.307879 -0.4741,0.709836 -0.34468,1.124996 0.15329,0.318319 -0.22287,0.185139 -0.42581,0.207739 -0.67744,-0.0402 -1.39533,0.09908 -2.03399,-0.19172 -0.1386,-0.0679 -0.32944,-0.0387 -0.44958,-0.0987 0.13758,-0.605929 0.22864,-1.22205 0.32297,-1.83503 0.0622,-0.389979 0.24811,-0.864537 -0.0682,-1.198376 -0.27802,-0.36779 -0.52819,-0.758198 -0.69763,-1.187008 -0.0996,-0.120843 -0.28393,-0.12356 -0.42736,-0.137459 h -5.2e-4 c -0.1833,0.0495 0.0117,0.283503 0.0336,0.394808 0.0778,0.336186 0.13773,0.688993 0.36018,0.970483 0.16963,0.17514 0.27151,0.366906 0.18707,0.613916 -0.10868,0.769429 -0.0221,1.658837 -0.58859,2.273246 -0.33874,0.39041 -0.883991,0.204439 -1.32912,0.239779 -0.293605,-0.0653 -0.522707,0.289598 -0.806153,0.131258 -0.306151,-0.11166 -0.563201,-0.31835 -0.72657,-0.60048 -0.287181,-0.2675 -0.718886,-0.320286 -1.082622,-0.382406 -0.21089,0.27202 -0.602991,0.310363 -0.863513,0.08733 -0.382025,-0.30699 -0.750229,-0.69806 -0.891418,-1.177189 -0.07382,-0.49375 0.476813,-0.734668 0.794783,-0.992188 0.285245,-0.25783 0.642822,-0.530441 0.729155,-0.922941 -0.105698,-0.187047 -0.345734,-0.338185 -0.56224,-0.345715 -0.262496,0.213339 -0.431758,0.541566 -0.719336,0.738456 -0.374554,0.27432 -0.833001,0.540904 -0.921391,1.040763 -0.10584,0.34031 0.03233,0.67634 0.106971,1.00304 -0.0654,0.342319 -2.143054,1.34455 -2.310545,1.63653 -0.196042,0.293629 -0.421007,0.678227 -0.810286,0.706417 -0.23808,-0.15177 -0.353057,-0.453895 -0.614433,-0.590145 -0.472267,-0.35996 -1.124204,-0.271637 -1.64331,-0.455786 -0.106714,-0.30682 0.01696,-0.691488 -0.19482,-0.953947 -0.203552,-0.16774 -0.04593,-0.487581 -0.04341,-0.707451 0.0168,-0.346299 0.242671,-0.64998 0.263033,-0.98857 -0.01069,5.15e-4 -0.02172,0.0026 -0.03256,0.0036 0.05582,-0.130409 0.116556,-0.271919 0.167949,-0.42168 0.03263,-0.57174 0.271955,-1.22371 0.505395,-1.37666 0.20783,-0.13617 0.231577,-0.391779 0.08992,-0.977718 -0.05767,-0.23855 -0.04234,-0.446035 0.05995,-0.797884 0.22586,-0.77696 1.750817,-2.273664 1.235157,-2.536734 -0.476175,-0.29782 -0.549893,-0.537254 -0.852661,-0.900203 -0.193747,-0.18563 -0.236161,-0.298393 -0.236161,-0.632003 0,-0.2946 -0.07969,-0.562962 -0.290421,-0.978752 -0.410828,-0.810579 -0.80977,-1.748476 -0.80977,-1.902726 0,-0.07208 -0.05722,-0.178561 -0.126607,-0.236161 -0.0811,-0.06728 -0.107228,-0.178283 -0.0739,-0.311092 0.03826,-0.15244 -0.01417,-0.289226 -0.198954,-0.519865 -0.702826,-0.877216 -0.925682,-1.530152 -0.838192,-2.457731 0.02926,-0.31027 0.02149,-0.759193 -0.01757,-0.997872 -0.0755,-0.46135 0.08507,-1.4816 0.351917,-2.233456 0.07438,-0.209549 0.194263,-0.544169 0.266133,-0.74414 0.07187,-0.199971 0.16675,-0.600373 0.21084,-0.889352 0.04409,-0.288978 0.103779,-0.60599 0.132809,-0.704349 0.03986,-0.135035 0.0096,-0.189843 -0.124024,-0.224793 -0.15356,-0.04016 -0.16566,-0.07636 -0.09095,-0.272851 0.04736,-0.124563 0.06391,-0.262392 0.03669,-0.306442 -0.02723,-0.04405 0.04219,-0.241183 0.154513,-0.437699 0.112317,-0.196516 0.273921,-0.585664 0.359151,-0.865064 0.08523,-0.279399 0.282387,-0.693424 0.437699,-0.91984 0.155313,-0.226418 0.28234,-0.474084 0.283187,-0.550354 5.67e-4,-0.07627 0.100187,-0.309798 0.221175,-0.519348 0.120989,-0.20955 0.274465,-0.533586 0.341065,-0.719853 0.0666,-0.186266 0.229893,-0.586151 0.363285,-0.888835 0.551313,-1.251054 0.632813,-1.52823 0.529683,-1.80144 -0.08454,-0.223977 -0.07179,-0.284125 0.104387,-0.49351 0.441519,-0.524708 0.733813,-1.695626 0.774113,-3.102136 0.01834,-0.640747 0.07649,-1.507915 0.129191,-1.927014 0.05272,-0.4191 0.113375,-1.104247 0.134875,-1.522905 0.02147,-0.418657 0.07064,-0.799966 0.109037,-0.846976 0.12304,-0.150553 0.248058,-0.743116 0.303858,-1.439706 0.06269,-0.782879 0.205735,-1.380128 0.448035,-1.869653 0.211899,-0.428129 0.334599,-0.531851 0.787548,-0.665592 0.489562,-0.144551 0.531145,-0.290807 0.146761,-0.293006 z"
       sodipodi:nodetypes="sssssscsssssssssssssssssssssssccsssscssscccccccccccccccccccccccccsccccsscsscssssccssscccsssssssssscccssscsscccccccccccccccccccccccccccccccccccccccccccccccccccccccccccsssccssscsssssssssssssscssssssscccsss" /></g><g
     inkscape:groupmode="layer"
     id="layer3"
     inkscape:label="for Namaman Full Map" /><g
     inkscape:groupmode="layer"
     id="layer4"
     inkscape:label="reference coordinate lines"><g
       inkscape:groupmode="layer"
       id="layer5"
       inkscape:label="reference coordinate strokes" /><g
       inkscape:groupmode="layer"
       id="layer6"
       inkscape:label="reference coordinate strokes - thicker" /></g><g
     inkscape:groupmode="layer"
     id="layer2"
     inkscape:label="for Central Namaman map"
     style="display:none"><rect
       style="opacity:1;fill:#000000;fill-opacity:1;stroke:none;stroke-width:0.13846;stroke-linecap:round;stroke-linejoin:round;stroke-dasharray:none;stroke-opacity:1"
       id="rect29059"
       width="2.54"
       height="2.54"
       x="152.9334"
       y="32.435799" /><rect
       style="opacity:1;fill:#000000;fill-opacity:1;stroke:none;stroke-width:0.13846;stroke-linecap:round;stroke-linejoin:round;stroke-dasharray:none;stroke-opacity:1"
       id="rect29061"
       width="2.54"
       height="2.54"
       x="68.6054"
       y="126.15521" /><rect
       style="opacity:1;fill:none;fill-opacity:0.424556;stroke:#000000;stroke-width:0.280703;stroke-linecap:round;stroke-linejoin:round;stroke-dasharray:none;stroke-opacity:1"
       id="rect34563"
       width="10.5156"
       height="10.8712"
       x="103.6574"
       y="92.329002" /><circle
       style="fill:#000000;stroke:none;stroke-width:1.71296;stroke-linecap:round;stroke-linejoin:round;stroke-opacity:1"
       id="circle35473"
       cx="108.57972"
       cy="100.99197"
       r="0.40129831" /><circle
       style="fill:#000000;stroke:none;stroke-width:1.71296;stroke-linecap:round;stroke-linejoin:round;stroke-opacity:1"
       id="circle35475"
       cx="105.95605"
       cy="94.191872"
       r="0.40129831" /><circle
       style="fill:#000000;stroke:none;stroke-width:1.71296;stroke-linecap:round;stroke-linejoin:round;stroke-opacity:1"
       id="circle35477"
       cx="111.68388"
       cy="98.039558"
       r="0.40129831" /></g></svg>
