<?xml version="1.0" encoding="UTF-8" standalone="no"?>
<svg
   width="6.2199998in"
   height="6.9133301in"
   viewBox="0 0 157.98799 175.59859"
   version="1.1"
   id="svg8"
   inkscape:version="1.2.2 (b0a8486541, 2022-12-01)"
   sodipodi:docname="map-Namaman-full-outline.svg"
   xml:space="preserve"
   inkscape:export-filename="../../images/map-Namaman-Full.png"
   inkscape:export-xdpi="300"
   inkscape:export-ydpi="300"
   xmlns:inkscape="http://www.inkscape.org/namespaces/inkscape"
   xmlns:sodipodi="http://sodipodi.sourceforge.net/DTD/sodipodi-0.dtd"
   xmlns="http://www.w3.org/2000/svg"
   xmlns:svg="http://www.w3.org/2000/svg"
   xmlns:rdf="http://www.w3.org/1999/02/22-rdf-syntax-ns#"
   xmlns:cc="http://creativecommons.org/ns#"
   xmlns:dc="http://purl.org/dc/elements/1.1/"><defs
     id="defs2"><inkscape:path-effect
       effect="offset"
       id="path-effect8005"
       is_visible="true"
       lpeversion="1.2"
       linejoin_type="miter"
       unit="mm"
       offset="0.1"
       miter_limit="4"
       attempt_force_join="false"
       update_on_knot_move="true" /><inkscape:path-effect
       effect="offset"
       id="path-effect7631"
       is_visible="true"
       lpeversion="1.2"
       linejoin_type="miter"
       unit="mm"
       offset="0.2"
       miter_limit="4"
       attempt_force_join="false"
       update_on_knot_move="true" /><marker
       style="overflow:visible"
       id="TriangleOutL"
       refX="0"
       refY="0"
       orient="auto"
       inkscape:stockid="TriangleOutL"
       inkscape:isstock="true"><path
         transform="scale(0.8)"
         style="fill:#ababab;fill-opacity:1;fill-rule:evenodd;stroke:#ababab;stroke-width:1pt;stroke-opacity:1"
         d="M 5.77,0 -2.88,5 V -5 Z"
         id="path1405" /></marker><marker
       style="overflow:visible"
       id="TriangleInL"
       refX="0.0"
       refY="0.0"
       orient="auto"
       inkscape:stockid="TriangleInL"
       inkscape:isstock="true"><path
         transform="scale(-0.8)"
         style="fill-rule:evenodd;stroke:#000000;stroke-width:1pt;stroke-opacity:1;fill:#000000;fill-opacity:1"
         d="M 5.77,0.0 L -2.88,5.0 L -2.88,-5.0 L 5.77,0.0 z "
         id="path1396" /></marker><marker
       style="overflow:visible;"
       id="Arrow2Mend"
       refX="0.0"
       refY="0.0"
       orient="auto"
       inkscape:stockid="Arrow2Mend"
       inkscape:isstock="true"><path
         transform="scale(0.6) rotate(180) translate(0,0)"
         d="M 8.7185878,4.0337352 L -2.2072895,0.016013256 L 8.7185884,-4.0017078 C 6.9730900,-1.6296469 6.9831476,1.6157441 8.7185878,4.0337352 z "
         style="fill-rule:evenodd;stroke-width:0.625;stroke-linejoin:round;stroke:#000000;stroke-opacity:1;fill:#000000;fill-opacity:1"
         id="path1290" /></marker><marker
       style="overflow:visible;"
       id="Arrow2Lend"
       refX="0.0"
       refY="0.0"
       orient="auto"
       inkscape:stockid="Arrow2Lend"
       inkscape:isstock="true"><path
         transform="scale(1.1) rotate(180) translate(1,0)"
         d="M 8.7185878,4.0337352 L -2.2072895,0.016013256 L 8.7185884,-4.0017078 C 6.9730900,-1.6296469 6.9831476,1.6157441 8.7185878,4.0337352 z "
         style="fill-rule:evenodd;stroke-width:0.625;stroke-linejoin:round;stroke:#000000;stroke-opacity:1;fill:#000000;fill-opacity:1"
         id="path1284" /></marker><marker
       style="overflow:visible;"
       id="marker1667"
       refX="0.0"
       refY="0.0"
       orient="auto"
       inkscape:stockid="Arrow1Lend"
       inkscape:isstock="true"><path
         transform="scale(0.8) rotate(180) translate(12.5,0)"
         style="fill-rule:evenodd;stroke:#000000;stroke-width:1pt;stroke-opacity:1;fill:#000000;fill-opacity:1"
         d="M 0.0,0.0 L 5.0,-5.0 L -12.5,0.0 L 5.0,5.0 L 0.0,0.0 z "
         id="path1665" /></marker><marker
       style="overflow:visible;"
       id="marker1633"
       refX="0.0"
       refY="0.0"
       orient="auto"
       inkscape:stockid="Arrow1Lend"
       inkscape:isstock="true"><path
         transform="scale(0.8) rotate(180) translate(12.5,0)"
         style="fill-rule:evenodd;stroke:#000000;stroke-width:1pt;stroke-opacity:1;fill:#000000;fill-opacity:1"
         d="M 0.0,0.0 L 5.0,-5.0 L -12.5,0.0 L 5.0,5.0 L 0.0,0.0 z "
         id="path1631" /></marker><marker
       style="overflow:visible;"
       id="Arrow2Send"
       refX="0.0"
       refY="0.0"
       orient="auto"
       inkscape:stockid="Arrow2Send"
       inkscape:isstock="true"><path
         transform="scale(0.3) rotate(180) translate(-2.3,0)"
         d="M 8.7185878,4.0337352 L -2.2072895,0.016013256 L 8.7185884,-4.0017078 C 6.9730900,-1.6296469 6.9831476,1.6157441 8.7185878,4.0337352 z "
         style="fill-rule:evenodd;stroke-width:0.625;stroke-linejoin:round;stroke:#000000;stroke-opacity:1;fill:#000000;fill-opacity:1"
         id="path1296" /></marker><marker
       style="overflow:visible;"
       id="marker1573"
       refX="0.0"
       refY="0.0"
       orient="auto"
       inkscape:stockid="Arrow1Lend"
       inkscape:isstock="true"><path
         transform="scale(0.8) rotate(180) translate(12.5,0)"
         style="fill-rule:evenodd;stroke:#000000;stroke-width:1pt;stroke-opacity:1;fill:#000000;fill-opacity:1"
         d="M 0.0,0.0 L 5.0,-5.0 L -12.5,0.0 L 5.0,5.0 L 0.0,0.0 z "
         id="path1571" /></marker><rect
       x="1.3229167"
       y="9.260417"
       width="9.5250003"
       height="13.758334"
       id="rect1237" /><marker
       style="overflow:visible"
       id="TriangleOutL-9"
       refX="0"
       refY="0"
       orient="auto"
       inkscape:stockid="TriangleOutL"
       inkscape:isstock="true"><path
         transform="scale(0.8)"
         style="fill:#ababab;fill-opacity:1;fill-rule:evenodd;stroke:#ababab;stroke-width:1pt;stroke-opacity:1"
         d="M 5.77,0 -2.88,5 V -5 Z"
         id="path1405-7" /></marker><marker
       style="overflow:visible"
       id="TriangleOutL-8"
       refX="0"
       refY="0"
       orient="auto"
       inkscape:stockid="TriangleOutL"
       inkscape:isstock="true"><path
         transform="scale(0.8)"
         style="fill:#ababab;fill-opacity:1;fill-rule:evenodd;stroke:#ababab;stroke-width:1pt;stroke-opacity:1"
         d="M 5.77,0 -2.88,5 V -5 Z"
         id="path1405-6" /></marker><marker
       style="overflow:visible"
       id="TriangleOutL-8-4"
       refX="0"
       refY="0"
       orient="auto"
       inkscape:stockid="TriangleOutL"
       inkscape:isstock="true"><path
         transform="scale(0.8)"
         style="fill:#ababab;fill-opacity:1;fill-rule:evenodd;stroke:#ababab;stroke-width:1pt;stroke-opacity:1"
         d="M 5.77,0 -2.88,5 V -5 Z"
         id="path1405-6-8" /></marker><marker
       style="overflow:visible"
       id="TriangleOutL-8-8"
       refX="0"
       refY="0"
       orient="auto"
       inkscape:stockid="TriangleOutL"
       inkscape:isstock="true"><path
         transform="scale(0.8)"
         style="fill:#ababab;fill-opacity:1;fill-rule:evenodd;stroke:#ababab;stroke-width:1pt;stroke-opacity:1"
         d="M 5.77,0 -2.88,5 V -5 Z"
         id="path1405-6-9" /></marker><marker
       style="overflow:visible"
       id="TriangleOutL-9-7"
       refX="0"
       refY="0"
       orient="auto"
       inkscape:stockid="TriangleOutL"
       inkscape:isstock="true"><path
         transform="scale(0.8)"
         style="fill:#ababab;fill-opacity:1;fill-rule:evenodd;stroke:#ababab;stroke-width:1pt;stroke-opacity:1"
         d="M 5.77,0 -2.88,5 V -5 Z"
         id="path1405-7-6" /></marker><marker
       style="overflow:visible"
       id="TriangleOutL-9-7-3"
       refX="0"
       refY="0"
       orient="auto"
       inkscape:stockid="TriangleOutL"
       inkscape:isstock="true"><path
         transform="scale(0.8)"
         style="fill:#ababab;fill-opacity:1;fill-rule:evenodd;stroke:#ababab;stroke-width:1pt;stroke-opacity:1"
         d="M 5.77,0 -2.88,5 V -5 Z"
         id="path1405-7-6-0" /></marker><marker
       style="overflow:visible"
       refX="0"
       refY="0"
       orient="auto"
       inkscape:stockid="TriangleOutL-9-7-37600"
       inkscape:isstock="true"
       id="TriangleOutL-9-7-37600"><path
         transform="scale(0.8)"
         style="fill:#ffffff;fill-opacity:1;fill-rule:evenodd;stroke:#000000;stroke-width:1pt;stroke-opacity:1"
         d="M 5.77,0 -2.88,5 V -5 Z"
         id="path42626" /></marker><marker
       style="overflow:visible"
       refX="0"
       refY="0"
       orient="auto"
       inkscape:stockid="TriangleOutL-9-7-376007634"
       inkscape:isstock="true"
       id="TriangleOutL-9-7-376007634"><path
         transform="scale(0.8)"
         style="fill:#676767;fill-opacity:1;fill-rule:evenodd;stroke:#676767;stroke-width:1pt;stroke-opacity:1"
         d="M 5.77,0 -2.88,5 V -5 Z"
         id="path43478" /></marker><marker
       style="overflow:visible"
       refX="0"
       refY="0"
       orient="auto"
       inkscape:stockid="TriangleOutL-85069"
       inkscape:isstock="true"
       id="TriangleOutL-85069"><path
         transform="scale(0.8)"
         style="fill:#676767;fill-opacity:1;fill-rule:evenodd;stroke:#676767;stroke-width:1pt;stroke-opacity:1"
         d="M 5.77,0 -2.88,5 V -5 Z"
         id="path45187" /></marker><marker
       style="overflow:visible"
       refX="0"
       refY="0"
       orient="auto"
       inkscape:stockid="TriangleOutL-8-42667"
       inkscape:isstock="true"
       id="TriangleOutL-8-42667"><path
         transform="scale(0.8)"
         style="fill:#676767;fill-opacity:1.0;fill-rule:evenodd;stroke:#676767;stroke-width:1pt;stroke-opacity:1.0"
         d="M 5.77,0 -2.88,5 V -5 Z"
         id="path45190" /></marker><marker
       style="overflow:visible"
       refX="0"
       refY="0"
       orient="auto"
       inkscape:stockid="TriangleOutL8130"
       inkscape:isstock="true"
       id="TriangleOutL8130"><path
         transform="scale(0.8)"
         style="fill:#676767;fill-opacity:1;fill-rule:evenodd;stroke:#676767;stroke-width:1pt;stroke-opacity:1"
         d="M 5.77,0 -2.88,5 V -5 Z"
         id="path45193" /></marker><marker
       style="overflow:visible"
       refX="0"
       refY="0"
       orient="auto"
       inkscape:stockid="TriangleOutL-9-7-3760076341363"
       inkscape:isstock="true"
       id="TriangleOutL-9-7-3760076341363"><path
         transform="scale(0.8)"
         style="fill:#676767;fill-opacity:1;fill-rule:evenodd;stroke:#676767;stroke-width:1pt;stroke-opacity:1"
         d="M 5.77,0 -2.88,5 V -5 Z"
         id="path45196" /></marker><marker
       style="overflow:visible"
       refX="0"
       refY="0"
       orient="auto"
       inkscape:stockid="TriangleOutL-94385"
       inkscape:isstock="true"
       id="TriangleOutL-94385"><path
         transform="scale(0.8)"
         style="fill:#676767;fill-opacity:1.0;fill-rule:evenodd;stroke:#676767;stroke-width:1pt;stroke-opacity:1.0"
         d="M 5.77,0 -2.88,5 V -5 Z"
         id="path45199" /></marker><marker
       style="overflow:visible"
       refX="0"
       refY="0"
       orient="auto"
       inkscape:stockid="TriangleOutL-9-77238"
       inkscape:isstock="true"
       id="TriangleOutL-9-77238"><path
         transform="scale(0.8)"
         style="fill:#676767;fill-opacity:1.0;fill-rule:evenodd;stroke:#676767;stroke-width:1pt;stroke-opacity:1.0"
         d="M 5.77,0 -2.88,5 V -5 Z"
         id="path45202" /></marker><marker
       style="overflow:visible"
       refX="0"
       refY="0"
       orient="auto"
       inkscape:stockid="TriangleOutL-8-87583"
       inkscape:isstock="true"
       id="TriangleOutL-8-87583"><path
         transform="scale(0.8)"
         style="fill:#676767;fill-opacity:1.0;fill-rule:evenodd;stroke:#676767;stroke-width:1pt;stroke-opacity:1.0"
         d="M 5.77,0 -2.88,5 V -5 Z"
         id="path45205" /></marker></defs><sodipodi:namedview
     id="base"
     pagecolor="#ffffff"
     bordercolor="#666666"
     borderopacity="1.0"
     inkscape:pageopacity="0.0"
     inkscape:pageshadow="2"
     inkscape:zoom="0.61271664"
     inkscape:cx="243.17929"
     inkscape:cy="113.42927"
     inkscape:document-units="in"
     inkscape:current-layer="layer1"
     inkscape:document-rotation="0"
     showgrid="false"
     units="in"
     inkscape:window-width="1920"
     inkscape:window-height="1026"
     inkscape:window-x="1280"
     inkscape:window-y="0"
     inkscape:window-maximized="1"
     inkscape:showpageshadow="2"
     inkscape:pagecheckerboard="0"
     inkscape:deskcolor="#d1d1d1" /><metadata
     id="metadata5"><rdf:RDF><cc:Work
         rdf:about=""><dc:format>image/svg+xml</dc:format><dc:type
           rdf:resource="http://purl.org/dc/dcmitype/StillImage" /></cc:Work></rdf:RDF></metadata><g
     inkscape:label="common"
     inkscape:groupmode="layer"
     id="layer1"><path
       style="fill:#000000;fill-opacity:1;stroke:none;stroke-width:0.498017;stroke-linecap:round;stroke-linejoin:round;stroke-opacity:1"
       d="m 379.95765,133.84707 c -6.70147,0.28725 -13.41632,0.62713 -20.00902,1.86229 -4.6131,0.36782 -8.92526,2.2613 -13.46465,3.08424 -6.88819,1.9838 -11.26818,8.76514 -18.31797,10.33887 -5.03687,1.94581 -8.72231,6.20096 -10.49778,11.2398 -1.4969,2.71472 0.58831,5.87888 1.31904,8.62839 0.93463,1.67354 2.2043,3.42457 0.88657,5.34877 -1.93631,3.36572 -0.14322,7.90949 -3.31728,10.66007 -3.20715,2.89356 -1.82496,8.00879 -5.29507,10.72896 -2.26498,2.14164 -5.86012,3.78938 -5.3123,7.54341 0.0242,3.77884 -3.00829,6.53359 -3.20481,10.28618 -0.94063,4.78947 -1.19782,9.70138 -1.35974,14.55487 1.6508,1.62884 2.77388,3.71858 3.62529,5.74697 1.27026,0.47046 2.94739,0.53235 2.88869,2.41856 0.0648,4.28733 4.56178,6.77488 4.3467,11.07649 0.47533,3.76969 -2.16614,6.84267 -5.40349,8.35499 -6.92631,5.23139 -15.89307,6.05391 -24.21331,7.10857 -5.3745,-0.30393 -9.57249,3.43611 -13.48447,6.5415 -3.25657,0.48995 -5.66268,-2.81988 -8.94975,-2.89476 -3.5318,-0.8456 -7.9874,-0.2531 -10.24971,-3.74587 -5.40264,-5.87596 -11.44802,-11.26619 -16.24289,-17.6158 -3.87553,-1.67827 -8.76686,-1.40257 -11.99549,1.55225 -2.55052,1.75436 -5.87702,1.87698 -7.95375,4.446 -6.14678,4.7033 -7.40698,13.44903 -13.64196,17.96638 -5.96376,2.26701 -8.2657,9.86468 -14.79704,11.0086 -3.72175,0.90706 -6.16914,3.94764 -9.08957,6.07425 -3.63697,1.40763 -5.25355,5.32651 -7.68931,8.03988 -3.83666,0.64866 -5.75956,4.12743 -7.54239,7.14319 -1.33813,1.96341 -3.58998,4.59616 -6.22116,2.99 -3.67342,-1.62823 -7.90037,-3.12294 -10.63068,-6.11477 -2.08483,-3.02624 -5.99795,-5.16177 -5.77433,-9.34795 -0.34551,-4.52629 -5.29855,-6.4383 -7.09556,-10.28922 -3.53685,-6.64007 -10.02321,-11.08211 -16.21452,-15.02602 -4.37657,-1.75971 -9.0106,1.13926 -12.90114,2.96908 -3.769115,1.65388 -7.089278,4.739 -7.512162,9.0335 -0.241523,3.1255 -4.668476,2.10317 -5.689217,0 -1.501361,-1.79599 -2.88322,-3.84157 -2.760005,-6.19786 -2.344352,-2.67117 -6.872381,-5.52155 -10.13319,-2.59181 -3.453228,1.96463 -2.161643,6.47679 -2.13789,9.70967 0.473374,2.65746 1.666426,5.13169 2.385115,7.70349 1.35062,1.32866 1.980429,3.4916 0.398194,4.92829 -2.154934,2.85298 -5.614933,5.85653 -9.409753,4.50477 -1.527685,-1.60531 -2.606828,-4.47868 -5.385251,-3.8097 -2.799376,-0.31078 -4.874398,1.60438 -5.822962,4.06604 -2.444164,5.26535 -5.184365,10.38881 -9.603304,14.29026 -3.220136,3.08006 -6.868697,7.18839 -5.332538,12.01997 1.16551,3.48219 3.914504,6.38429 3.873531,10.27504 0.178551,6.75131 1.725263,13.68065 5.073181,19.56726 1.73566,1.87706 5.100926,3.16898 6.780458,0.4784 4.448214,-4.80005 7.034358,-11.04679 9.638734,-16.9665 0.97803,-2.14003 -1.407603,-4.21049 0.180353,-6.25965 2.312399,-5.1373 5.795944,-11.87003 12.210287,-12.22144 3.366795,0.0543 7.864577,2.66291 6.599086,6.58795 -0.280335,2.54475 -2.539722,5.02756 -2.003131,7.53428 2.671471,1.78132 6.114651,3.13912 6.763228,6.73587 1.900278,3.69542 -2.087877,6.52307 -3.006217,9.79681 0.519416,2.42262 4.107453,1.6774 5.874401,2.38395 5.317937,0.84905 10.398972,3.15682 14.005822,7.29833 4.36786,4.67338 9.84718,8.44988 13.69781,13.52648 1.19301,2.86665 2.18517,7.39181 6.17556,7.21411 4.58787,-0.788 10.58016,0.084 13.48897,-4.44093 3.14824,-3.65884 4.1898,-8.37079 4.67803,-13.03302 0.81144,-4.85602 4.2515,-8.82016 4.54631,-13.84562 0.39261,-2.59853 0.30558,-5.75492 2.95859,-7.19891 2.36424,-2.60225 2.81074,-6.38484 4.99922,-9.1605 1.71506,-3.59787 5.81815,-4.32658 8.98015,-5.94658 1.91081,-2.40063 6.18693,-1.72549 6.66798,1.4793 0.35404,4.17052 5.18887,3.65523 8.08041,4.79151 2.90178,1.14008 2.81035,5.76931 6.18164,6.29613 4.5632,-1.38265 9.05137,-5.24097 14.06651,-3.88771 2.23797,1.33719 4.82803,2.53359 7.36826,1.14169 3.55423,-0.85167 7.3939,-1.62372 9.71016,-4.76533 2.78856,-3.333 6.50979,-6.42139 11.15894,-5.7385 3.33722,0.39278 5.48261,-2.61715 5.94151,-5.58587 1.10991,-3.96081 6.22557,-4.14275 9.63561,-4.24552 4.54496,0.19425 9.5802,-0.47303 13.7231,1.68411 2.92144,1.91131 6.90731,1.08406 9.96905,2.86335 6.24242,2.80104 12.28089,7.02751 19.46377,6.52342 4.69563,-0.0847 9.48154,-0.0337 13.69784,2.30171 2.62505,0.82488 5.94281,1.21624 8.39158,0.2396 2.97354,-2.73582 5.28147,-6.6198 8.94153,-8.4416 1.64881,0.62721 4.12648,1.98991 4.37061,3.51933 -1.34138,2.135 -1.74557,5.52698 0.90015,6.77091 0.89317,2.24139 -0.30038,5.2769 1.86736,7.06111 0.86211,3.73753 1.26253,7.89798 0.45392,11.65606 -3.06646,6.03211 -4.31969,12.77438 -3.94789,19.51249 0.23663,7.11207 -0.58046,14.14097 -1.81158,21.12197 -0.67754,6.12402 0.37685,12.92086 -3.44156,18.21727 -0.79887,3.11108 -0.34743,6.42681 -1.52388,9.50703 -1.54104,8.36489 1.69052,16.58399 1.73767,24.9211 0.22995,3.41774 3.37995,5.92483 6.73283,5.46428 1.96595,0.37922 3.97164,1.55387 5.80472,-0.0132 1.91498,-1.25336 3.71644,-2.67496 5.87059,-3.46216 2.19599,-2.91246 4.25003,-6.45402 4.46728,-10.1717 -0.30107,-3.35655 -0.47922,-7.58569 -4.05996,-9.18076 -2.26984,-1.05814 -4.85136,-4.34488 -2.91605,-6.68319 3.24043,-0.38981 5.43454,3.06378 8.57993,3.55843 2.73964,1.11637 6.5602,0.86093 7.73085,-2.35878 2.41575,-3.97403 3.9825,-8.40498 6.03169,-12.52134 4.22008,-5.25654 11.303,-5.89212 17.42309,-7.28136 4.25077,-1.78054 8.94603,-1.75165 13.11326,-3.77284 4.85171,-1.61912 9.89134,-2.6743 14.87809,-3.57159 2.0689,-1.13413 3.54326,-3.5514 6.24547,-3.09032 2.41913,-0.50783 5.79136,0.53056 7.59348,-0.93359 1.96779,-3.29413 1.2095,-7.67797 3.39082,-10.75286 6.71905,-1.31809 13.33103,2.88541 20.08501,2.06899 3.1756,-1.37294 6.65485,-1.92108 9.81301,-3.25142 3.36073,-2.4018 3.8301,-7.5904 8.27453,-8.7599 4.93677,-3.10178 10.96054,-2.51721 16.28689,-4.30352 1.82488,-1.76941 4.41218,-2.1972 6.77234,-1.13784 2.60162,0.93192 5.69016,2.04524 8.09865,-0.008 3.71407,-3.23161 9.12597,-3.27697 13.33192,-1.16115 0.65673,1.75692 -0.83524,3.80004 -0.23746,5.70574 0.65637,4.64257 0.99261,9.73382 -1.81735,13.71359 -2.89889,10.15065 -1.78438,20.92609 -3.23297,31.3049 -0.44279,6.09724 -1.57848,12.18797 -4.59515,17.57475 -1.57007,3.77594 -2.03405,9.47233 1.66877,12.14949 2.91584,1.87844 4.83117,-1.93756 6.1519,-3.91088 2.97482,-4.43516 3.14822,-9.90674 5.25491,-14.72523 2.19404,-6.83112 0.27374,-15.44448 6.44102,-20.467 2.68294,-2.24537 6.44461,-3.11484 8.14222,-6.49067 4.31696,-5.48202 6.43418,-12.32149 10.59623,-17.85796 4.97715,-4.83177 8.63877,-10.88718 13.90559,-15.47984 2.83589,-2.54738 5.43719,-5.78929 9.21705,-6.8373 1.5139,-1.14622 3.30425,-1.67027 4.71349,-2.90084 2.40382,-0.60304 4.49285,-1.91154 5.73986,-4.10556 2.18904,-2.89591 6.83341,-4.23414 7.52924,-8.09966 -1.09253,-0.78127 0.78017,-1.41908 0.25331,-2.54014 -0.99111,-25.03072 -3.39009,-49.99264 -5.06452,-74.98665 -2.06272,-27.18522 -3.89999,-54.46701 -6.34836,-81.57574 0.89658,-1.68799 -2.26831,-2.32314 -3.25548,-3.14199 -3.04387,-1.54824 -6.69187,-2.04342 -9.00244,-4.79455 -2.8697,-2.0086 -5.53551,-5.07083 -9.39751,-4.05293 -4.84403,-0.17272 -9.77094,0.20447 -14.18716,2.39328 -1.78003,-1.91839 -4.0863,-3.16181 -6.20595,-4.48855 -2.57151,-2.02308 -5.78395,-3.08473 -8.23747,-5.289 -2.15311,-0.6434 -4.19312,-1.67254 -5.0752,-3.8786 -3.15334,-3.52237 -8.19836,-4.40513 -12.02183,-7.05807 -4.95702,-2.89456 -11.17087,-0.84093 -15.93791,-4.14609 -4.28149,-2.89154 -9.81838,-0.71514 -14.31373,-3.066 -5.18553,-1.30173 -10.71915,-2.04839 -15.9673,-1.01321 -2.13596,-1.01564 -4.58159,0.89218 -6.88785,0.24824 -6.54158,-0.9247 -12.98925,-2.88369 -19.69374,-2.7437 -4.59683,-0.25021 -9.46147,-0.74556 -13.42936,-3.22922 -8.78623,-0.85939 -17.74449,-0.80059 -26.56454,-0.4904 z"
       id="path3717"
       transform="scale(0.26458333)"
       inkscape:label="Namaman-land" /></g></svg>
